<?xml version="1.0" encoding="UTF-8"?>
<!-- Generator: visioncortex VTracer 0.6.3 -->
<svg version="1.1" xmlns="http://www.w3.org/2000/svg" width="1280" height="1280">
<path d="M0 0 C0.7 0.16 1.39 0.32 2.11 0.48 C5.67 1.37 7.99 2.14 10.25 5.06 C10.61 7.09 10.61 7.09 10.59 9.44 C10.59 10.32 10.59 11.2 10.59 12.11 C10.57 13.06 10.56 14 10.54 14.98 C10.54 15.95 10.53 16.93 10.53 17.93 C10.51 21.03 10.48 24.14 10.44 27.25 C10.42 29.36 10.41 31.46 10.4 33.57 C10.36 38.73 10.31 43.9 10.25 49.06 C5.62 51.16 5.62 51.16 2.3 50.26 C1.3 49.86 0.29 49.47 -0.75 49.06 C-9.46 47.1 -18.17 46.86 -27.06 46.81 C-28.08 46.8 -29.09 46.79 -30.13 46.78 C-38.67 46.82 -46.18 47.24 -53.12 52.62 C-55.78 54.65 -57.56 56 -60.75 57.06 C-61.81 58.88 -61.81 58.88 -62.75 61.06 C-64.22 63.37 -65.71 65.66 -67.21 67.94 C-74.92 83.61 -71.75 98.06 -71.75 116.06 C0.02 116.56 0.02 116.56 73.25 117.06 C73.99 121.51 74.38 125.18 74.39 129.62 C74.41 131.57 74.41 131.57 74.42 133.56 C74.42 135 74.42 136.43 74.42 137.86 C74.43 139.37 74.44 140.89 74.44 142.41 C74.46 145.67 74.47 148.93 74.48 152.19 C74.5 157.36 74.52 162.52 74.54 167.69 C74.62 182.38 74.68 197.07 74.73 211.76 C74.76 219.88 74.79 228 74.83 236.11 C74.86 241.24 74.88 246.36 74.89 251.49 C74.9 254.69 74.92 257.9 74.94 261.1 C74.94 262.58 74.95 264.05 74.95 265.52 C74.96 282.07 76.43 296.88 87.25 310.06 C98.4 320.3 110.26 321.72 124.77 321.44 C134.97 320.95 143.74 317.02 151.25 310.06 C151.79 309.56 152.33 309.06 152.89 308.55 C159.97 301.18 162.59 291.35 163.89 281.46 C164.25 279.06 164.25 279.06 165.25 277.06 C165.35 274.99 165.39 272.91 165.4 270.84 C165.41 270.19 165.41 269.55 165.41 268.88 C165.43 266.71 165.43 264.54 165.44 262.36 C165.45 260.81 165.46 259.26 165.46 257.7 C165.48 254.35 165.5 251 165.51 247.65 C165.53 242.36 165.56 237.06 165.59 231.77 C165.65 220.53 165.7 209.3 165.75 198.06 C165.81 185.93 165.86 173.81 165.93 161.68 C165.96 156.41 165.98 151.14 166 145.88 C166.01 142.61 166.03 139.33 166.05 136.06 C166.06 134.54 166.06 133.02 166.07 131.5 C166.07 129.43 166.08 127.36 166.1 125.29 C166.1 124.13 166.11 122.97 166.11 121.77 C166.25 119.06 166.25 119.06 167.25 117.06 C175.06 117.04 182.86 117.02 190.67 117.01 C194.29 117.01 197.92 117 201.54 116.99 C205.03 116.98 208.53 116.97 212.02 116.97 C214.01 116.96 216 116.96 217.99 116.95 C219.19 116.95 220.39 116.95 221.63 116.95 C222.69 116.95 223.76 116.94 224.85 116.94 C227.25 117.06 227.25 117.06 228.25 118.06 C228.36 119.83 228.41 121.61 228.42 123.39 C228.44 124.52 228.45 125.66 228.46 126.84 C228.48 128.7 228.48 128.7 228.5 130.61 C228.52 132.56 228.55 134.51 228.57 136.47 C228.63 141.29 228.68 146.11 228.73 150.93 C228.75 153.63 228.78 156.32 228.82 159.02 C228.85 161.55 228.88 164.09 228.9 166.62 C229.05 177.52 229.98 188.21 234.12 198.38 C234.39 199.05 234.66 199.73 234.94 200.43 C235.69 202.32 236.47 204.19 237.25 206.06 C237.58 206.88 237.91 207.7 238.25 208.54 C240.48 213.55 243.87 217.23 247.64 221.18 C249.25 223.06 249.25 223.06 249.25 225.06 C250.24 225.06 251.23 225.06 252.25 225.06 C252.25 225.72 252.25 226.38 252.25 227.06 C252.79 227.31 253.32 227.55 253.88 227.8 C256.86 229.38 259.5 231.29 262.25 233.25 C272.09 240.14 282.04 245.69 293.25 250.06 C294.06 250.4 294.87 250.74 295.7 251.08 C298.2 252.12 300.72 253.1 303.25 254.06 C304.29 254.46 305.33 254.87 306.4 255.28 C316.94 259.1 327.63 260.82 338.66 262.63 C347.58 264.13 356 266.3 364.25 270.06 C365.7 270.71 365.7 270.71 367.18 271.37 C377.07 276.02 386.87 282.2 392.25 292.06 C392.25 293.05 392.25 294.04 392.25 295.06 C392.91 295.06 393.57 295.06 394.25 295.06 C399.56 306.16 400.91 318.19 397.25 330.06 C391.66 340.83 382.41 348.58 371.25 353.06 C370.66 353.32 370.07 353.58 369.46 353.85 C362.21 356.71 355.01 356.51 347.31 356.44 C345.35 356.45 345.35 356.45 343.35 356.47 C330.98 356.44 322.51 353.83 312.25 347.06 C311.63 346.7 311.02 346.33 310.38 345.95 C299.64 339.14 293.47 326.85 287.21 316.21 C283.62 310.11 283.62 310.11 279.33 304.49 C277.25 302.06 277.25 302.06 277.25 300.06 C276.67 299.79 276.1 299.52 275.5 299.25 C273.22 298.04 271.27 296.65 269.19 295.12 C260.03 289.03 249.09 287.52 238.25 289.06 C234.98 290.99 234.98 290.99 232.25 293.06 C231.59 293.06 230.93 293.06 230.25 293.06 C229.91 293.84 229.91 293.84 229.56 294.62 C228.25 297.06 228.25 297.06 225.94 300.12 C222.58 304.73 220.53 309.87 218.25 315.06 C215.94 320 213.52 324.7 210.25 329.06 C209.59 329.06 208.93 329.06 208.25 329.06 C208.02 329.77 207.79 330.48 207.55 331.21 C199.07 349.77 175.4 362.23 157.25 369.06 C156.55 369.35 155.86 369.63 155.14 369.93 C134.48 377.75 102.65 379.16 82.25 370.06 C80.67 369.59 79.09 369.13 77.5 368.69 C69.64 366.35 63 363.15 56.29 358.43 C54.34 357.12 52.38 356.07 50.25 355.06 C50.25 354.4 50.25 353.74 50.25 353.06 C49.71 353 49.18 352.94 48.62 352.88 C45.08 351.66 42.99 349.62 40.25 347.06 C40.25 346.4 40.25 345.74 40.25 345.06 C39.26 344.73 38.27 344.4 37.25 344.06 C37.25 343.4 37.25 342.74 37.25 342.06 C36.59 342.06 35.93 342.06 35.25 342.06 C18.63 323.58 12.18 299.92 12.04 275.58 C12.03 274.46 12.02 273.35 12.01 272.2 C11.98 268.55 11.96 264.9 11.93 261.25 C11.91 258.7 11.89 256.16 11.87 253.62 C11.82 247.62 11.78 241.63 11.73 235.64 C11.68 228.14 11.62 220.64 11.56 213.15 C11.45 199.79 11.35 186.42 11.25 173.06 C-16.14 173.06 -43.53 173.06 -71.75 173.06 C-71.77 178.93 -71.79 184.8 -71.81 190.84 C-71.88 210.17 -71.95 229.51 -72.04 248.84 C-72.09 260.57 -72.13 272.3 -72.17 284.03 C-72.2 294.24 -72.24 304.46 -72.29 314.68 C-72.32 320.1 -72.34 325.51 -72.35 330.92 C-72.37 336.01 -72.39 341.1 -72.42 346.19 C-72.43 348.07 -72.43 349.94 -72.43 351.81 C-72.44 354.36 -72.45 356.91 -72.47 359.46 C-72.47 360.21 -72.47 360.96 -72.47 361.73 C-72.52 366.83 -72.52 366.83 -74.75 369.06 C-77.18 369.31 -77.18 369.31 -80.27 369.31 C-81.42 369.31 -82.58 369.31 -83.77 369.31 C-85.02 369.31 -86.27 369.3 -87.56 369.29 C-88.84 369.29 -90.12 369.29 -91.44 369.29 C-94.15 369.29 -96.86 369.28 -99.57 369.27 C-103.05 369.25 -106.53 369.25 -110 369.25 C-113.31 369.25 -116.63 369.24 -119.94 369.23 C-121.19 369.23 -122.44 369.23 -123.73 369.23 C-124.89 369.22 -126.04 369.21 -127.23 369.21 C-128.76 369.2 -128.76 369.2 -130.32 369.2 C-132.75 369.06 -132.75 369.06 -134.75 368.06 C-135.7 365.21 -135.88 363.44 -135.88 360.48 C-135.89 359.54 -135.89 358.59 -135.89 357.62 C-135.89 356.58 -135.89 355.54 -135.89 354.47 C-135.89 353.36 -135.9 352.26 -135.9 351.12 C-135.91 347.4 -135.91 343.69 -135.91 339.97 C-135.92 337.31 -135.92 334.65 -135.93 331.99 C-135.94 324.74 -135.95 317.5 -135.95 310.25 C-135.95 305.72 -135.96 301.19 -135.96 296.65 C-135.97 284.08 -135.98 271.51 -135.99 258.94 C-135.99 258.13 -135.99 257.33 -135.99 256.5 C-135.99 255.69 -135.99 254.88 -135.99 254.05 C-135.99 252.41 -135.99 250.78 -135.99 249.14 C-135.99 247.93 -135.99 247.93 -135.99 246.69 C-135.99 233.6 -136.01 220.5 -136.04 207.41 C-136.06 193.95 -136.07 180.48 -136.07 167.01 C-136.07 159.46 -136.08 151.91 -136.1 144.36 C-136.11 137.92 -136.12 131.47 -136.11 125.03 C-136.11 121.75 -136.11 118.48 -136.12 115.2 C-136.27 74.39 -136.27 74.39 -130.75 60.06 C-130.16 58.28 -130.16 58.28 -129.56 56.47 C-126.18 46.69 -121.67 38.52 -115.75 30.06 C-115.09 29.07 -114.43 28.08 -113.75 27.06 C-113.09 27.06 -112.43 27.06 -111.75 27.06 C-111.52 26.5 -111.3 25.94 -111.06 25.36 C-109.38 22.42 -107.28 20.56 -104.75 18.31 C-103.86 17.51 -102.98 16.71 -102.06 15.89 C-99.75 14.06 -99.75 14.06 -97.75 14.06 C-97.75 13.4 -97.75 12.74 -97.75 12.06 C-94.76 10.37 -91.76 8.72 -88.75 7.06 C-88.15 6.72 -87.55 6.37 -86.93 6.02 C-61.52 -7.86 -27.44 -6.29 0 0 Z " fill="#020202" transform="translate(372.75,435.9375)"/>
<path d="M0 0 C2.15 -0.01 4.3 -0.04 6.46 -0.07 C29.7 -0.25 52.22 6.76 71.25 20.24 C71.25 20.9 71.25 21.56 71.25 22.24 C72.24 22.57 73.23 22.9 74.25 23.24 C74.25 23.9 74.25 24.56 74.25 25.24 C75.06 25.51 75.86 25.78 76.69 26.05 C77.53 26.44 78.38 26.84 79.25 27.24 C79.58 28.23 79.91 29.22 80.25 30.24 C80.91 30.24 81.57 30.24 82.25 30.24 C87.25 35.72 87.25 35.72 87.25 38.24 C88.24 38.57 89.23 38.9 90.25 39.24 C93.25 43.57 93.25 43.57 93.25 46.24 C93.91 46.24 94.57 46.24 95.25 46.24 C95.71 47.16 96.17 48.08 96.64 49.02 C96.94 49.61 97.23 50.2 97.54 50.81 C98.18 52.1 98.83 53.4 99.47 54.69 C100.8 57.35 102.13 60 103.5 62.63 C108.05 71.36 110.26 80.64 112.25 90.24 C112.43 90.98 112.6 91.71 112.78 92.47 C114.53 100.62 114.56 108.66 114.51 116.96 C114.5 119.37 114.51 121.78 114.53 124.19 C114.54 139.01 114.54 139.01 112.25 146.24 C110.25 148.24 110.25 148.24 107.43 148.49 C106.21 148.48 105 148.48 103.75 148.48 C102.73 148.48 102.73 148.48 101.7 148.49 C99.43 148.49 97.15 148.48 94.88 148.47 C93.25 148.47 91.63 148.47 90 148.47 C85.58 148.47 81.15 148.46 76.73 148.44 C72.11 148.43 67.49 148.43 62.87 148.43 C54.12 148.42 45.37 148.4 36.62 148.38 C26.66 148.36 16.7 148.35 6.74 148.34 C-13.76 148.32 -34.25 148.28 -54.75 148.24 C-54.3 150.78 -53.85 153.31 -53.39 155.85 C-53.27 156.56 -53.15 157.27 -53.02 158 C-51.83 164.52 -49.67 170.29 -46.75 176.24 C-46.28 177.2 -45.82 178.16 -45.34 179.14 C-42.5 184.65 -39.37 189.21 -35.07 193.68 C-33.75 195.24 -33.75 195.24 -33.75 197.24 C-33.15 197.53 -32.55 197.82 -31.94 198.12 C-29.75 199.24 -29.75 199.24 -26.75 201.24 C-26.75 201.9 -26.75 202.56 -26.75 203.24 C-26.02 203.52 -25.29 203.8 -24.55 204.09 C-21.94 205.16 -19.49 206.37 -17 207.68 C-5.18 213.62 6.52 215.6 19.69 215.49 C20.83 215.48 21.97 215.48 23.14 215.47 C37.19 215.31 50.7 213.93 64.35 210.53 C67.25 210.24 67.25 210.24 69.15 211.22 C70.79 214.23 70.52 217.1 70.38 220.43 C70.17 229.05 70.54 237.6 71.07 246.22 C71.15 247.69 71.15 247.69 71.23 249.2 C71.28 250.07 71.33 250.95 71.39 251.85 C71.23 254.58 70.84 256.02 69.25 258.24 C53.76 265.73 33.15 264.54 16.38 264.62 C15.15 264.63 15.15 264.63 13.89 264.64 C-3.53 264.77 -20.48 262.68 -36.43 255.29 C-40.48 253.46 -44.62 251.86 -48.75 250.24 C-48.75 249.58 -48.75 248.92 -48.75 248.24 C-49.46 248.14 -50.18 248.04 -50.92 247.94 C-58.54 246.06 -66.99 239.57 -72.75 234.24 C-72.75 233.58 -72.75 232.92 -72.75 232.24 C-73.74 231.91 -74.73 231.58 -75.75 231.24 C-75.75 230.58 -75.75 229.92 -75.75 229.24 C-76.74 228.91 -77.73 228.58 -78.75 228.24 C-78.75 227.58 -78.75 226.92 -78.75 226.24 C-79.65 225.84 -79.65 225.84 -80.57 225.43 C-82.82 224.2 -83.96 223.12 -85.55 221.15 C-86.05 220.54 -86.55 219.92 -87.06 219.29 C-87.58 218.63 -88.09 217.98 -88.62 217.3 C-89.16 216.63 -89.69 215.95 -90.24 215.26 C-94.41 209.88 -97.77 204.37 -100.75 198.24 C-101.16 197.48 -101.58 196.72 -102 195.94 C-104.79 190.74 -106.79 185.43 -108.69 179.87 C-112.28 169.38 -116.77 160.11 -123.43 151.2 C-124.75 149.24 -124.75 149.24 -124.75 147.24 C-125.41 147.24 -126.07 147.24 -126.75 147.24 C-128.19 145.74 -128.19 145.74 -129.87 143.68 C-133.8 139.05 -138.24 133.99 -143.75 131.24 C-143.75 130.58 -143.75 129.92 -143.75 129.24 C-144.6 129.08 -144.6 129.08 -145.46 128.91 C-148.1 128.14 -150 126.97 -152.31 125.49 C-160.13 120.71 -168.4 117.3 -176.94 114.05 C-177.59 113.8 -178.24 113.55 -178.91 113.29 C-183.46 111.6 -188.03 110.35 -192.75 109.24 C-193.97 108.93 -195.18 108.63 -196.44 108.31 C-203.73 106.53 -210.98 104.99 -218.39 103.79 C-236.81 100.79 -256.89 95.91 -269.62 81.05 C-270.75 79.24 -270.75 79.24 -270.75 77.24 C-271.41 77.24 -272.07 77.24 -272.75 77.24 C-279.53 68.1 -280.32 56.2 -278.75 45.24 C-275.66 35.7 -269.75 28.16 -261.75 22.24 C-260.76 22.24 -259.77 22.24 -258.75 22.24 C-258.75 21.58 -258.75 20.92 -258.75 20.24 C-257.1 19.91 -255.45 19.58 -253.75 19.24 C-253.75 18.58 -253.75 17.92 -253.75 17.24 C-244.79 13.66 -236.55 11.86 -226.87 11.93 C-226 11.93 -225.12 11.94 -224.22 11.94 C-217.67 12.05 -211.87 12.84 -205.75 15.24 C-204.62 15.64 -204.62 15.64 -203.48 16.05 C-191.33 20.84 -178.97 31.32 -171.75 42.24 C-171.75 42.9 -171.75 43.56 -171.75 44.24 C-171.09 44.24 -170.43 44.24 -169.75 44.24 C-168.24 45.67 -168.24 45.67 -166.62 47.55 C-166.08 48.17 -165.55 48.78 -164.99 49.42 C-163.75 51.24 -163.75 51.24 -163.75 54.24 C-163.09 54.24 -162.43 54.24 -161.75 54.24 C-160.19 56 -158.7 57.83 -157.25 59.68 C-154.46 63.52 -154.46 63.52 -150.75 66.24 C-150.75 66.9 -150.75 67.56 -150.75 68.24 C-150.13 68.55 -149.51 68.86 -148.87 69.18 C-147.5 69.87 -146.12 70.55 -144.75 71.24 C-144.75 71.9 -144.75 72.56 -144.75 73.24 C-144.07 73.36 -143.39 73.49 -142.69 73.62 C-139.75 74.24 -139.75 74.24 -136.75 75.37 C-129.73 77.29 -122.73 76.78 -116.26 73.44 C-109.77 69.3 -104.52 64.27 -99.75 58.24 C-98.19 56.51 -98.19 56.51 -96.75 55.24 C-96.09 55.24 -95.43 55.24 -94.75 55.24 C-94.44 54.62 -94.13 54 -93.81 53.37 C-93.12 51.99 -92.44 50.62 -91.75 49.24 C-91.09 49.24 -90.43 49.24 -89.75 49.24 C-89.54 48.55 -89.33 47.87 -89.12 47.16 C-87.3 43.28 -84.73 40.58 -81.81 37.49 C-81.27 36.9 -80.73 36.31 -80.18 35.71 C-76.14 31.37 -76.14 31.37 -72.75 30.24 C-72.75 29.58 -72.75 28.92 -72.75 28.24 C-70.66 26.4 -68.57 24.68 -66.37 22.99 C-65.73 22.5 -65.1 22 -64.44 21.49 C-56.35 15.3 -48.28 10.81 -38.75 7.24 C-37.02 6.51 -35.29 5.78 -33.56 5.05 C-29.57 3.44 -26.01 2.69 -21.75 2.24 C-21.42 1.91 -21.09 1.58 -20.75 1.24 C-13.85 0.02 -6.98 0.02 0 0 Z M-22.75 54.24 C-23.63 54.72 -24.52 55.19 -25.43 55.68 C-27.88 57.05 -27.88 57.05 -30.75 59.24 C-30.75 59.9 -30.75 60.56 -30.75 61.24 C-31.58 61.61 -31.58 61.61 -32.44 61.99 C-35.17 63.47 -37.42 65.17 -39.75 67.24 C-39.75 67.9 -39.75 68.56 -39.75 69.24 C-40.41 69.24 -41.07 69.24 -41.75 69.24 C-43.16 71.26 -44.43 73.25 -45.69 75.37 C-46.03 75.93 -46.38 76.5 -46.74 77.09 C-50.01 82.51 -52.8 87.73 -54.44 93.87 C-54.69 94.79 -54.94 95.71 -55.2 96.65 C-55.89 99.45 -55.89 99.45 -55.75 103.24 C-16.15 103.24 23.45 103.24 64.25 103.24 C64.43 96.5 64.43 96.5 62.94 90.62 C62.53 89.49 62.53 89.49 62.11 88.34 C60.97 85.56 59.64 82.9 58.25 80.24 C57.57 78.58 56.89 76.92 56.25 75.24 C55.59 75.24 54.93 75.24 54.25 75.24 C53.98 74.66 53.71 74.07 53.44 73.47 C47.22 61.73 34.06 53.69 21.74 49.67 C15.99 47.99 10.53 47.66 4.56 47.68 C3.51 47.68 2.47 47.68 1.38 47.68 C-7.8 47.89 -14.7 49.82 -22.75 54.24 Z " fill="#020202" transform="translate(944.748291015625,546.759765625)"/>
</svg>
