<?xml version="1.0" encoding="UTF-8"?>
<!-- Generator: visioncortex VTracer 0.6.3 -->
<svg version="1.1" xmlns="http://www.w3.org/2000/svg" width="1280" height="960">
<path d="M0 0 C1.03 0.01 1.03 0.01 2.09 0.02 C2.78 0.02 3.47 0.01 4.18 0 C9.34 0.02 9.34 0.02 11.59 2.27 C11.78 5.38 11.84 8.39 11.82 11.5 C11.82 12.45 11.82 13.41 11.82 14.39 C11.82 17.56 11.8 20.74 11.79 23.91 C11.78 26.1 11.78 28.29 11.78 30.49 C11.77 36.27 11.75 42.06 11.73 47.84 C11.71 53.74 11.7 59.64 11.69 65.54 C11.67 77.11 11.63 88.69 11.59 100.27 C7.21 99.56 4.86 98.36 1.59 95.27 C1.59 94.61 1.59 93.95 1.59 93.27 C0.93 93.27 0.27 93.27 -0.41 93.27 C-0.41 92.61 -0.41 91.95 -0.41 91.27 C-1 91.01 -1.59 90.74 -2.2 90.46 C-4.43 89.26 -5.97 88.01 -7.79 86.27 C-8.4 85.69 -9.01 85.12 -9.64 84.53 C-10.27 83.93 -10.89 83.33 -11.54 82.71 C-12.79 81.52 -14.04 80.33 -15.29 79.14 C-15.84 78.62 -16.39 78.09 -16.96 77.55 C-18.4 76.17 -18.4 76.17 -20.41 75.27 C-20.41 74.61 -20.41 73.95 -20.41 73.27 C-20.98 73.02 -21.55 72.76 -22.14 72.49 C-24.62 71.16 -26.54 69.62 -28.66 67.77 C-29.37 67.17 -30.07 66.56 -30.8 65.93 C-32.41 64.27 -32.41 64.27 -32.41 62.27 C-33.07 62.27 -33.73 62.27 -34.41 62.27 C-34.41 61.61 -34.41 60.95 -34.41 60.27 C-34.99 60.01 -35.57 59.75 -36.17 59.49 C-38.57 58.19 -40.23 56.75 -42.2 54.87 C-42.89 54.21 -43.59 53.54 -44.3 52.86 C-45.02 52.17 -45.73 51.48 -46.47 50.77 C-47.9 49.41 -49.33 48.04 -50.76 46.68 C-51.39 46.07 -52.02 45.47 -52.66 44.85 C-54.53 43.09 -54.53 43.09 -57.41 41.27 C-57.41 40.61 -57.41 39.95 -57.41 39.27 C-58.07 39.27 -58.73 39.27 -59.41 39.27 C-59.41 38.61 -59.41 37.95 -59.41 37.27 C-59.98 37 -60.56 36.73 -61.15 36.45 C-65.3 34.3 -68.65 32.11 -71.41 28.27 C-72.49 23.59 -72.49 19.06 -72.41 14.27 C-72.42 13.17 -72.43 12.06 -72.45 10.92 C-72.47 8.37 -72.46 5.82 -72.41 3.27 C-70.76 2.94 -69.11 2.61 -67.41 2.27 C-67.41 2.93 -67.41 3.59 -67.41 4.27 C-66.75 4.27 -66.09 4.27 -65.41 4.27 C-65.41 4.93 -65.41 5.59 -65.41 6.27 C-64.82 6.54 -64.23 6.81 -63.61 7.09 C-61.43 8.26 -59.92 9.47 -58.13 11.17 C-57.24 12.01 -57.24 12.01 -56.33 12.88 C-55.71 13.46 -55.1 14.05 -54.47 14.65 C-53.26 15.8 -52.04 16.96 -50.82 18.11 C-50.24 18.66 -49.67 19.2 -49.07 19.76 C-47.6 21.1 -46.04 22.34 -44.47 23.56 C-43.45 24.41 -43.45 24.41 -42.41 25.27 C-42.41 25.93 -42.41 26.59 -42.41 27.27 C-41.84 27.52 -41.26 27.77 -40.67 28.02 C-38.05 29.47 -36.35 31.18 -34.29 33.34 C-31.63 36.19 -31.63 36.19 -28.41 38.27 C-28.41 38.93 -28.41 39.59 -28.41 40.27 C-27.83 40.54 -27.26 40.81 -26.66 41.09 C-24.35 42.3 -22.39 43.58 -20.41 45.27 C-20.41 45.93 -20.41 46.59 -20.41 47.27 C-19.84 47.53 -19.27 47.78 -18.68 48.05 C-16.17 49.4 -14.28 50.99 -12.16 52.9 C-11.45 53.53 -10.75 54.16 -10.02 54.81 C-9.49 55.29 -8.96 55.78 -8.41 56.27 C-8.4 55.6 -8.39 54.93 -8.39 54.24 C-8.3 47.26 -8.2 40.29 -8.09 33.31 C-8.05 30.71 -8.02 28.1 -7.99 25.5 C-7.94 21.76 -7.88 18.02 -7.82 14.28 C-7.81 13.11 -7.8 11.94 -7.79 10.73 C-7.77 9.65 -7.75 8.57 -7.73 7.46 C-7.72 6.5 -7.7 5.55 -7.69 4.56 C-7.1 -0.24 -4.18 0.02 0 0 Z " fill="#000202" transform="translate(862.41015625,428.7265625)"/>
<path d="M0 0 C6.39 -0.05 12.77 -0.09 19.16 -0.11 C21.33 -0.12 23.5 -0.13 25.67 -0.15 C28.8 -0.18 31.93 -0.19 35.06 -0.2 C36.02 -0.21 36.98 -0.22 37.97 -0.23 C48.75 -0.23 58.7 1.61 66.69 9.31 C75.11 18.31 77.78 26.3 77.44 38.66 C76.82 47.51 72.13 54.79 65.68 60.66 C63.57 62.34 61.4 63.76 59 65 C59.95 68.15 60.92 70.86 62.62 73.69 C64 76 64 76 64 79 C64.66 79 65.32 79 66 79 C67.46 81.65 68 82.89 68 86 C68.66 86 69.32 86 70 86 C70.98 87.79 71.96 89.58 72.94 91.38 C73.48 92.37 74.03 93.37 74.59 94.4 C75.41 95.92 76.23 97.45 77 99 C76.34 99.99 75.68 100.98 75 102 C68.72 102.98 60.26 104.21 54.76 100.48 C53.17 98.07 52.12 95.66 51 93 C50 91.18 48.96 89.39 47.9 87.6 C46.86 85.83 45.84 84.03 44.83 82.23 C43.69 80.22 42.51 78.22 41.26 76.27 C40 74 40 74 40 71 C39.34 71 38.68 71 38 71 C37.16 69.57 36.33 68.13 35.5 66.69 C35.04 65.89 34.57 65.09 34.09 64.26 C33 62 33 62 33 59 C32.34 59 31.68 59 31 59 C29.14 55.87 28.8 53.63 29 50 C33.26 49.46 37.39 48.99 41.69 49.06 C46.89 48.96 49.91 47.97 53.81 44.5 C57.64 40.13 57.4 36.59 57.35 30.92 C57.21 27.78 57.21 27.78 54.81 24.94 C53.42 23.98 53.42 23.98 52 23 C51.29 22.46 50.58 21.93 49.85 21.38 C46.03 19.53 42.67 19.8 38.55 20.02 C36.88 20.05 35.21 20.08 33.54 20.11 C30.93 20.17 28.32 20.25 25.72 20.39 C11.65 21.12 11.65 21.12 7.17 17.53 C3.52 13.49 0.97 9.06 -1 4 C-0.59 1.77 -0.59 1.77 0 0 Z " fill="#000202" transform="translate(409,429)"/>
<path d="M0 0 C3.98 3.41 5.69 7.13 7.75 11.81 C10.33 17.48 13.01 23.04 16 28.5 C19.29 34.53 22.25 40.68 25.12 46.92 C27.5 52.05 30.14 56.96 33.07 61.8 C34.18 64.41 33.79 65.36 33 68 C30.06 68.08 27.13 68.14 24.19 68.19 C23.35 68.21 22.52 68.24 21.66 68.26 C20.86 68.27 20.06 68.28 19.23 68.29 C18.49 68.31 17.75 68.32 16.99 68.34 C14.37 67.89 13.62 67.09 12 65 C11.14 63.43 10.34 61.82 9.59 60.18 C9.16 59.25 8.72 58.33 8.28 57.37 C7.84 56.4 7.39 55.43 6.94 54.44 C6.05 52.52 5.17 50.6 4.28 48.68 C3.89 47.83 3.5 46.98 3.1 46.11 C2.06 43.86 2.06 43.86 0 42 C-4.6 50.36 -8.93 58.81 -13 67.44 C-16.08 73.96 -19.17 80.47 -22.38 86.94 C-22.68 87.57 -22.99 88.2 -23.31 88.85 C-27.75 97.75 -27.75 97.75 -31 101 C-33.86 101.07 -36.7 101.09 -39.56 101.06 C-40.37 101.06 -41.18 101.05 -42.01 101.05 C-44 101.04 -46 101.02 -48 101 C-49.18 97.57 -49.09 96.22 -47.63 92.83 C-46.95 91.63 -46.26 90.44 -45.56 89.25 C-44.81 87.91 -44.06 86.57 -43.32 85.23 C-42.93 84.54 -42.54 83.85 -42.15 83.13 C-40.28 79.66 -38.64 76.08 -37 72.5 C-34.55 67.2 -31.99 62 -29.19 56.88 C-25.66 50.39 -22.43 43.78 -19.25 37.12 C-18.79 36.16 -18.33 35.2 -17.86 34.21 C-15.15 28.51 -12.53 22.78 -10 17 C-9.34 17 -8.68 17 -8 17 C-7.89 16.28 -7.77 15.56 -7.65 14.82 C-6.97 11.86 -5.94 9.52 -4.56 6.81 C-4.13 5.95 -3.7 5.09 -3.25 4.21 C-2 2 -2 2 0 0 Z " fill="#000202" transform="translate(332,430)"/>
<path d="M0 0 C1.87 0.27 1.87 0.27 4 1 C5.15 2.62 5.15 2.62 6.08 4.73 C6.43 5.5 6.78 6.28 7.14 7.08 C7.51 7.92 7.87 8.76 8.25 9.62 C9.05 11.39 9.85 13.15 10.65 14.91 C11.05 15.78 11.45 16.66 11.85 17.56 C13.38 20.81 15.07 23.92 16.81 27.06 C20.67 34.1 24.06 41.35 27.44 48.62 C27.97 49.76 28.5 50.9 29.05 52.08 C29.8 53.7 29.8 53.7 30.56 55.35 C31.01 56.32 31.45 57.29 31.91 58.28 C32.95 60.88 33.64 63.23 34 66 C31.9 68.1 27.52 67.23 24.62 67.25 C23.84 67.27 23.06 67.29 22.26 67.31 C16.45 67.35 16.45 67.35 14.37 65.72 C12.94 63.92 12.01 62.26 11.06 60.16 C10.72 59.43 10.39 58.69 10.04 57.94 C9.7 57.17 9.35 56.41 9 55.62 C6.35 49.74 6.35 49.74 3.25 44.09 C2 42 2 42 2 40 C1.34 40 0.68 40 0 40 C-0.13 40.59 -0.27 41.17 -0.4 41.78 C-1.35 45.3 -3 48.52 -4.56 51.81 C-4.92 52.57 -5.28 53.32 -5.64 54.1 C-8.27 59.59 -11.07 64.97 -13.99 70.31 C-16.97 75.83 -19.63 81.48 -22.21 87.19 C-24.27 91.7 -26.45 96.45 -30 100 C-32.86 100.07 -35.7 100.09 -38.56 100.06 C-39.37 100.06 -40.18 100.05 -41.01 100.05 C-43 100.04 -45 100.02 -47 100 C-48.23 96.49 -48.04 95.09 -46.63 91.57 C-45.95 90.27 -45.26 88.98 -44.56 87.69 C-43.81 86.24 -43.06 84.8 -42.3 83.36 C-41.72 82.26 -41.72 82.26 -41.13 81.15 C-39.44 77.93 -37.81 74.69 -36.19 71.44 C-35.87 70.8 -35.54 70.16 -35.21 69.5 C-32.22 63.52 -29.37 57.48 -26.5 51.44 C-23.41 44.92 -20.27 38.46 -16.81 32.12 C-13.94 26.85 -11.33 21.52 -8.81 16.06 C-6.22 10.43 -3.5 5.14 0 0 Z " fill="#000202" transform="translate(706,431)"/>
<path d="M0 0 C0.5 1.98 0.5 1.98 1 4 C0.01 4.33 -0.98 4.66 -2 5 C-2.7 6.32 -3.36 7.65 -4 9 C-5.59 10.8 -5.59 10.8 -7.44 12.6 C-8.44 13.58 -8.44 13.58 -9.46 14.59 C-10.15 15.26 -10.85 15.93 -11.56 16.62 C-12.94 17.97 -14.32 19.32 -15.69 20.66 C-16.3 21.26 -16.91 21.85 -17.54 22.46 C-19.1 23.95 -19.1 23.95 -20 26 C-20.66 26 -21.32 26 -22 26 C-22 26.66 -22 27.32 -22 28 C-22.66 28 -23.32 28 -24 28 C-24 28.66 -24 29.32 -24 30 C-24.66 30 -25.32 30 -26 30 C-26.27 30.64 -26.54 31.28 -26.81 31.94 C-28 34 -28 34 -31 35 C-31 35.66 -31 36.32 -31 37 C-31.66 37 -32.32 37 -33 37 C-33.27 37.6 -33.54 38.2 -33.81 38.81 C-35 41 -36.1 42.41 -38 44 C-38.66 44 -39.32 44 -40 44 C-40 44.66 -40 45.32 -40 46 C-40.66 46 -41.32 46 -42 46 C-42.66 47.98 -43.32 49.96 -44 52 C-43.34 52.62 -42.68 53.24 -42 53.88 C-40 56 -40 56 -40 58 C-39.4 58.27 -38.8 58.54 -38.19 58.81 C-36 60 -34.59 61.1 -33 63 C-33 63.66 -33 64.32 -33 65 C-32.34 65 -31.68 65 -31 65 C-31 65.66 -31 66.32 -31 67 C-30.01 67.33 -29.02 67.66 -28 68 C-28 68.66 -28 69.32 -28 70 C-27.34 70 -26.68 70 -26 70 C-26 70.66 -26 71.32 -26 72 C-25.34 72 -24.68 72 -24 72 C-24 72.66 -24 73.32 -24 74 C-23.34 74 -22.68 74 -22 74 C-20.57 75.46 -20.57 75.46 -18.91 77.48 C-16.32 80.53 -13.66 83.38 -10.78 86.14 C-10.08 86.82 -9.37 87.5 -8.65 88.2 C-7.19 89.59 -5.73 90.97 -4.26 92.35 C-3.56 93.02 -2.87 93.7 -2.16 94.39 C-1.53 94.99 -0.89 95.59 -0.24 96.2 C1 98 1 98 0.7 100.23 C0.47 100.81 0.24 101.4 0 102 C-18.55 103.14 -18.55 103.14 -24.04 100.58 C-25.97 98.83 -27.48 97.11 -29 95 C-29.83 94.24 -30.65 93.47 -31.5 92.69 C-33 91 -33 91 -33 89 C-33.66 89 -34.32 89 -35 89 C-35 88.34 -35 87.68 -35 87 C-35.66 87 -36.32 87 -37 87 C-37 86.34 -37 85.68 -37 85 C-37.64 84.73 -38.28 84.46 -38.94 84.19 C-41 83 -41 83 -42 80 C-42.66 80 -43.32 80 -44 80 C-44 79.34 -44 78.68 -44 78 C-44.66 78 -45.32 78 -46 78 C-46 77.34 -46 76.68 -46 76 C-46.66 76 -47.32 76 -48 76 C-49.2 74.78 -49.2 74.78 -50.69 72.94 C-53.25 69.87 -55.94 67.06 -58.83 64.3 C-59.51 63.65 -60.2 62.99 -60.9 62.32 C-62.29 60.99 -63.69 59.67 -65.11 58.37 C-66.9 56.64 -68.55 55.02 -70 53 C-69.94 50.04 -69.94 50.04 -69 48 C-67.51 47.5 -67.51 47.5 -66 47 C-65.3 45.68 -64.64 44.35 -64 43 C-62.41 41.2 -62.41 41.2 -60.56 39.4 C-59.89 38.74 -59.23 38.09 -58.54 37.41 C-57.85 36.74 -57.15 36.07 -56.44 35.38 C-55.06 34.03 -53.68 32.68 -52.31 31.34 C-51.7 30.74 -51.09 30.15 -50.46 29.54 C-48.9 28.05 -48.9 28.05 -48 26 C-47.34 26 -46.68 26 -46 26 C-46 25.34 -46 24.68 -46 24 C-45.34 24 -44.68 24 -44 24 C-44 23.34 -44 22.68 -44 22 C-43.34 22 -42.68 22 -42 22 C-42 21.34 -42 20.68 -42 20 C-40.85 18.83 -39.69 17.67 -38.51 16.53 C-36.86 14.86 -35.45 13.08 -34 11.23 C-23.93 -0.93 -15.32 -2.05 0 0 Z " fill="#000202" transform="translate(608,429)"/>
<path d="M0 0 C2.74 -0.37 2.74 -0.37 6.27 -0.36 C8.25 -0.36 8.25 -0.36 10.26 -0.37 C11.71 -0.35 13.15 -0.34 14.6 -0.33 C16.07 -0.33 17.55 -0.32 19.02 -0.32 C22.11 -0.32 25.2 -0.3 28.29 -0.28 C32.26 -0.25 36.23 -0.24 40.21 -0.24 C43.25 -0.23 46.29 -0.22 49.34 -0.21 C50.8 -0.21 52.27 -0.2 53.73 -0.2 C55.77 -0.19 57.82 -0.18 59.86 -0.16 C61.02 -0.15 62.19 -0.15 63.39 -0.14 C66 0 66 0 67 1 C67.1 3.68 67.14 6.32 67.12 9 C67.13 9.75 67.13 10.5 67.14 11.27 C67.13 16.87 67.13 16.87 66 18 C63.94 18.09 61.89 18.12 59.83 18.11 C58.86 18.11 58.86 18.11 57.88 18.11 C55.74 18.11 53.6 18.11 51.46 18.1 C49.99 18.1 48.51 18.09 47.03 18.09 C43.13 18.09 39.23 18.08 35.34 18.07 C31.36 18.06 27.39 18.05 23.41 18.05 C15.61 18.04 7.8 18.02 0 18 C-1.5 14.44 -2.27 11.76 -2.25 7.88 C-2.26 7.03 -2.26 6.18 -2.27 5.3 C-2 3 -2 3 0 0 Z " fill="#000202" transform="translate(932,471)"/>
<path d="M0 0 C1.5 -0 1.5 -0 3.02 -0.01 C4.64 -0.01 4.64 -0.01 6.3 -0 C7.4 -0 8.51 -0.01 9.64 -0.01 C11.98 -0.01 14.32 -0.01 16.66 -0 C20.25 0 23.84 -0 27.44 -0.01 C29.7 -0.01 31.97 -0.01 34.23 -0 C35.86 -0.01 35.86 -0.01 37.51 -0.01 C39.01 -0 39.01 -0 40.53 0 C41.41 0 42.29 0 43.19 0 C45.2 0.13 45.2 0.13 46.2 1.13 C46.3 3.97 46.34 6.79 46.32 9.63 C46.33 10.43 46.33 11.23 46.34 12.05 C46.33 18 46.33 18 45.2 19.13 C43.17 19.22 41.15 19.25 39.12 19.24 C37.17 19.24 37.17 19.24 35.18 19.24 C33.74 19.24 32.31 19.23 30.88 19.23 C29.43 19.23 27.97 19.22 26.51 19.22 C22.68 19.22 18.84 19.21 15 19.2 C11.08 19.19 7.17 19.18 3.26 19.18 C-4.43 19.17 -12.12 19.15 -19.8 19.13 C-20.46 17.81 -21.12 16.49 -21.8 15.13 C-20.81 14.8 -19.82 14.47 -18.8 14.13 C-18.8 13.47 -18.8 12.81 -18.8 12.13 C-17.19 10.47 -17.19 10.47 -15.05 8.63 C-14.35 8.02 -13.66 7.41 -12.94 6.79 C-10.96 5.25 -9.08 4.16 -6.8 3.13 C-6.8 2.47 -6.8 1.81 -6.8 1.13 C-4.35 -0.1 -2.74 0 0 0 Z " fill="#000202" transform="translate(952.801025390625,511.87060546875)"/>
<path d="M0 0 C8.33 -0.02 16.65 -0.04 24.98 -0.05 C28.85 -0.06 32.71 -0.06 36.58 -0.08 C40.31 -0.09 44.04 -0.09 47.77 -0.09 C49.19 -0.1 50.62 -0.1 52.04 -0.11 C54.03 -0.11 56.02 -0.11 58.01 -0.11 C59.15 -0.12 60.28 -0.12 61.45 -0.12 C64 0 64 0 65 1 C65.1 3.84 65.14 6.66 65.12 9.5 C65.13 10.3 65.13 11.1 65.14 11.92 C65.13 17.87 65.13 17.87 64 19 C62.45 19.1 60.89 19.13 59.33 19.13 C58.33 19.13 57.34 19.14 56.31 19.14 C55.23 19.14 54.15 19.13 53.04 19.13 C51.38 19.13 51.38 19.13 49.69 19.14 C47.35 19.14 45.01 19.13 42.67 19.13 C39.08 19.13 35.49 19.13 31.9 19.14 C29.63 19.14 27.37 19.13 25.1 19.13 C24.02 19.13 22.94 19.14 21.82 19.14 C20.83 19.14 19.83 19.13 18.8 19.13 C17.48 19.13 17.48 19.13 16.13 19.13 C14 19 14 19 12 18 C12 17.34 12 16.68 12 16 C11.34 16 10.68 16 10 16 C10 15.34 10 14.68 10 14 C9.34 14 8.68 14 8 14 C6.38 12.62 6.38 12.62 5 11 C5 10.34 5 9.68 5 9 C4.34 9 3.68 9 3 9 C3 8.34 3 7.68 3 7 C2.34 7 1.68 7 1 7 C1 6.34 1 5.68 1 5 C0.01 4.67 -0.98 4.34 -2 4 C-1.34 2.68 -0.68 1.36 0 0 Z " fill="#000202" transform="translate(934,429)"/>
<path d="M0 0 C2.75 -0.14 5.5 -0.23 8.25 -0.31 C9.03 -0.35 9.8 -0.4 10.61 -0.44 C16.39 -0.56 16.39 -0.56 19.37 2.2 C19.91 3.13 20.44 4.05 21 5 C21.51 5.84 22.03 6.67 22.55 7.54 C23.21 8.79 23.21 8.79 23.88 10.06 C24.33 10.9 24.78 11.74 25.24 12.6 C26 15 26 15 24 19 C18.39 19 12.78 19 7 19 C5.68 16.69 4.36 14.38 3 12 C2.57 11.33 2.14 10.65 1.7 9.96 C-1.09 5.59 -1.09 5.59 -0.61 2.29 C-0.41 1.53 -0.21 0.78 0 0 Z " fill="#000202" transform="translate(729,512)"/>
<path d="M0 0 C1.19 0.01 1.19 0.01 2.4 0.01 C3.19 0.01 3.98 0 4.8 0 C10.71 0.01 10.71 0.01 12.97 1.14 C14.05 3.04 15.06 4.98 16.03 6.95 C16.56 8.01 17.08 9.07 17.63 10.16 C19.71 14.79 19.71 14.79 19.97 17.14 C17.05 20.06 14 19.5 10.09 19.51 C9.37 19.54 8.65 19.56 7.91 19.59 C4.47 19.6 2.4 19.46 -0.4 17.39 C-3.79 12.71 -6.49 6.94 -7.03 1.14 C-5.16 -0.74 -2.49 0 0 0 Z " fill="#000202" transform="translate(362.033203125,511.86328125)"/>
</svg>
