<?xml version="1.0" encoding="UTF-8"?>
<!-- Generator: visioncortex VTracer 0.6.3 -->
<svg version="1.1" xmlns="http://www.w3.org/2000/svg" width="1280" height="957">
<path d="M0 0 C0.75 0.01 1.5 0.03 2.27 0.04 C5.87 0.21 8.13 0.7 11.24 2.55 C13.22 4.75 13.22 4.75 13.22 8.75 C14.21 9.74 14.21 9.74 15.22 10.75 C15.72 12.24 15.72 12.24 16.22 13.75 C16.91 14.59 16.91 14.59 17.6 15.44 C19.45 18.07 20.34 20.59 21.4 23.6 C22.24 25.78 23.22 27.81 24.29 29.88 C25.95 33.1 27.08 36.31 28.22 39.75 C28.95 41.07 29.68 42.38 30.41 43.69 C32.57 47.82 32.34 50.29 31.22 54.75 C32.21 54.75 33.2 54.75 34.22 54.75 C34.22 55.74 34.22 56.73 34.22 57.75 C34.86 58.33 35.5 58.91 36.16 59.5 C38.91 62.5 39.08 64.75 39.22 68.75 C38.56 69.41 37.9 70.07 37.22 70.75 C36.53 72.07 35.86 73.4 35.22 74.75 C34.56 74.42 33.9 74.09 33.22 73.75 C33.55 75.4 33.88 77.05 34.22 78.75 C33.56 78.75 32.9 78.75 32.22 78.75 C31.97 79.39 31.72 80.03 31.46 80.69 C30.94 81.99 30.94 81.99 30.41 83.32 C30.05 84.23 29.69 85.15 29.31 86.1 C28.46 88.19 27.48 90.23 26.47 92.25 C24.26 98.46 24.08 103.14 26.76 109.26 C27.97 111.67 29.26 114.01 30.6 116.36 C32.3 119.92 32.78 122.86 33.22 126.75 C34.6 128.46 34.6 128.46 36.22 129.75 C40.92 138.18 43.22 149.18 43.22 158.75 C42.56 159.08 41.9 159.41 41.22 159.75 C41.22 160.08 41.22 160.41 41.22 160.75 C35.74 160.88 30.26 160.97 24.78 161.03 C22.92 161.05 21.05 161.09 19.19 161.13 C16.51 161.19 13.83 161.22 11.15 161.24 C10.31 161.27 9.48 161.29 8.62 161.32 C2.81 161.32 2.81 161.32 -0.24 158.37 C-0.74 157.5 -1.25 156.64 -1.78 155.75 C-2.55 154.61 -2.55 154.61 -3.34 153.44 C-5.67 149.09 -7.78 144.74 -7.78 139.75 C-8.44 139.42 -9.1 139.09 -9.78 138.75 C-10.12 137.42 -10.45 136.09 -10.78 134.75 C-11.27 133.78 -11.77 132.81 -12.28 131.82 C-13.64 129.04 -14.33 126.79 -14.78 123.75 C-15.77 123.75 -16.76 123.75 -17.78 123.75 C-18.39 123.59 -19.01 123.43 -19.64 123.26 C-22.13 122.67 -24.38 122.62 -26.94 122.62 C-27.92 122.62 -28.89 122.62 -29.9 122.62 C-30.91 122.62 -31.92 122.62 -32.96 122.63 C-33.99 122.62 -35.01 122.62 -36.06 122.62 C-37.03 122.62 -38 122.62 -39.01 122.62 C-39.9 122.62 -40.79 122.62 -41.71 122.62 C-43.77 122.52 -43.77 122.52 -44.78 123.75 C-44.92 126.08 -45 128.41 -45.06 130.75 C-45.07 131.45 -45.09 132.15 -45.11 132.87 C-45.17 135.12 -45.22 137.38 -45.28 139.63 C-45.34 142.58 -45.42 145.54 -45.49 148.5 C-45.52 149.81 -45.55 151.13 -45.59 152.49 C-45.78 155.75 -45.78 155.75 -46.78 158.75 C-52.15 158.97 -57.52 159.17 -62.9 159.35 C-64.73 159.41 -66.56 159.48 -68.39 159.55 C-71.01 159.66 -73.64 159.74 -76.27 159.83 C-77.5 159.88 -77.5 159.88 -78.75 159.94 C-81.06 160 -81.06 160 -84.78 159.75 C-86.78 156.75 -86.78 156.75 -86.78 153.75 C-87.44 153.42 -88.1 153.09 -88.78 152.75 C-88.12 152.75 -87.46 152.75 -86.78 152.75 C-86.94 152.13 -87.1 151.5 -87.27 150.85 C-87.96 146.6 -87.91 142.44 -87.9 138.13 C-87.91 137.17 -87.91 136.2 -87.91 135.21 C-87.91 132 -87.91 128.8 -87.91 125.6 C-87.91 123.34 -87.91 121.08 -87.91 118.82 C-87.91 114.06 -87.91 109.31 -87.91 104.55 C-87.9 98.57 -87.9 92.58 -87.91 86.6 C-87.93 59.64 -87.73 32.7 -86.78 5.75 C-86.12 5.75 -85.46 5.75 -84.78 5.75 C-84.78 4.76 -84.78 3.77 -84.78 2.75 C-81.16 0.34 -79.42 0.48 -75.11 0.42 C-74.1 0.4 -74.1 0.4 -73.07 0.38 C-70.83 0.35 -68.6 0.33 -66.36 0.3 C-64.8 0.28 -63.23 0.26 -61.66 0.24 C-58.37 0.19 -55.07 0.15 -51.78 0.12 C-47.6 0.08 -43.43 0.02 -39.26 -0.04 C-36.02 -0.09 -32.77 -0.13 -29.52 -0.17 C-27.99 -0.19 -26.45 -0.21 -24.92 -0.23 C-16.61 -0.34 -8.31 -0.3 0 0 Z M17.22 17.75 C18.22 21.75 18.22 21.75 18.22 21.75 Z M21.22 26.75 C22.22 30.75 22.22 30.75 22.22 30.75 Z M24.22 34.75 C25.22 37.75 25.22 37.75 25.22 37.75 Z M-43.78 43.75 C-43.78 44.08 -43.78 44.41 -43.78 44.75 C-39.16 44.75 -34.54 44.75 -29.78 44.75 C-29.78 44.42 -29.78 44.09 -29.78 43.75 C-34.4 43.75 -39.02 43.75 -43.78 43.75 Z M-26.78 43.75 C-26.78 44.08 -26.78 44.41 -26.78 44.75 C-25.13 44.75 -23.48 44.75 -21.78 44.75 C-21.78 44.42 -21.78 44.09 -21.78 43.75 C-23.43 43.75 -25.08 43.75 -26.78 43.75 Z M28.22 43.75 C29.22 46.75 29.22 46.75 29.22 46.75 Z M-45.78 45.75 C-45.78 56.97 -45.78 68.19 -45.78 79.75 C-45.45 79.75 -45.12 79.75 -44.78 79.75 C-44.78 68.53 -44.78 57.31 -44.78 45.75 C-45.11 45.75 -45.44 45.75 -45.78 45.75 Z M-43.78 47.75 C-44.19 50.96 -44.19 50.96 -44.07 54.73 C-44.06 55.41 -44.06 56.1 -44.06 56.81 C-44.04 59 -44 61.19 -43.96 63.38 C-43.95 64.86 -43.93 66.35 -43.92 67.83 C-43.89 71.47 -43.84 75.11 -43.78 78.75 C-40.35 80.61 -38.13 80.95 -34.21 80.82 C-30.95 80.71 -28.9 80.71 -25.78 81.75 C-22.31 81.51 -19.06 80.88 -15.78 79.75 C-13.7 77.59 -13.7 77.59 -12.78 74.75 C-12.22 73.76 -11.66 72.77 -11.09 71.75 C-9.78 68.76 -9.49 66.96 -9.78 63.75 C-10.44 63.75 -11.1 63.75 -11.78 63.75 C-11.86 62.76 -11.94 61.77 -12.03 60.75 C-12.76 55.65 -14.66 50.64 -18.56 47.16 C-21.11 45.54 -22.45 45.38 -25.44 45.39 C-26.31 45.39 -27.19 45.39 -28.09 45.39 C-29 45.41 -29.9 45.42 -30.84 45.44 C-32.2 45.44 -32.2 45.44 -33.6 45.43 C-39 45.38 -39 45.38 -43.78 47.75 Z M30.22 48.75 C31.22 50.75 31.22 50.75 31.22 50.75 Z M36.22 61.75 C37.22 65.75 37.22 65.75 37.22 65.75 Z M23.22 93.75 C24.22 95.75 24.22 95.75 24.22 95.75 Z M22.22 99.75 C23.22 103.75 23.22 103.75 23.22 103.75 Z M25.22 109.75 C26.22 111.75 26.22 111.75 26.22 111.75 Z M28.22 115.75 C29.22 118.75 29.22 118.75 29.22 118.75 Z M35.22 132.75 C36.22 134.75 36.22 134.75 36.22 134.75 Z M36.22 134.75 C37.22 137.75 37.22 137.75 37.22 137.75 Z M37.22 137.75 C38.22 139.75 38.22 139.75 38.22 139.75 Z " fill="#040406" transform="translate(426.775146484375,398.246826171875)"/>
<path d="M0 0 C0.99 0.33 1.98 0.66 3 1 C4.75 1.02 6.5 0.99 8.25 0.94 C12.98 0.91 16.62 1.18 21 3 C23.68 5.91 24.53 8.38 25.19 12.25 C25.35 13.14 25.5 14.03 25.67 14.95 C25.83 15.97 25.83 15.97 26 17 C26.66 17 27.32 17 28 17 C28.99 19.64 29.98 22.28 31 25 C30.34 25 29.68 25 29 25 C29.68 25.87 29.68 25.87 30.38 26.75 C32.53 29.73 33.84 32.51 35 36 C35.47 36.62 35.94 37.23 36.43 37.87 C38.14 40.19 39.09 42.37 40.12 45.06 C40.46 45.92 40.79 46.78 41.13 47.66 C42.28 50.74 43.23 53.81 44 57 C43.34 57 42.68 57 42 57 C43.32 59.31 44.64 61.62 46 64 C46.66 64 47.32 64 48 64 C48.51 65.44 49 66.87 49.5 68.31 C49.78 69.11 50.06 69.91 50.34 70.74 C51 73 51 73 51 76 C51.66 76 52.32 76 53 76 C53.51 77.41 54.01 78.83 54.5 80.25 C54.78 81.04 55.06 81.83 55.34 82.64 C56 85 56 85 56 89 C56.66 89 57.32 89 58 89 C58.4 90.36 58.4 90.36 58.81 91.75 C59.79 94.92 59.79 94.92 61.45 96.91 C64.14 100.54 65.44 104.79 67 109 C67.47 110.26 67.47 110.26 67.96 111.55 C70.13 117.61 70.13 117.61 69 121 C69.99 121 70.98 121 72 121 C74.22 124.33 74 125.2 74 129 C75.71 131.77 75.71 131.77 77 133 C77.67 135 78.33 137 79 139 C79.33 139.33 79.66 139.66 80 140 C83.18 147.19 83.51 152.48 81 160 C77.36 161.56 73.21 161.16 69.31 161.17 C68.57 161.17 67.83 161.17 67.07 161.18 C65.51 161.18 63.95 161.19 62.39 161.19 C60.01 161.19 57.63 161.21 55.24 161.22 C53.72 161.23 52.21 161.23 50.69 161.23 C49.62 161.24 49.62 161.24 48.53 161.25 C41.95 161.22 41.95 161.22 39 159 C37.68 157.01 37.68 157.01 36.54 154.57 C35.9 153.23 35.9 153.23 35.26 151.85 C33.22 147.23 31.3 142.57 29.44 137.88 C27.11 132.04 24.74 126.31 21.87 120.72 C18.96 114.98 16.98 109.36 16 103 C15.34 102.67 14.68 102.34 14 102 C13.05 99.89 12.19 97.73 11.38 95.56 C10.71 93.8 10.71 93.8 10.02 92 C9 89 9 89 9 87 C7.51 86.5 7.51 86.5 6 86 C3.73 89.56 2.13 93.04 0.69 97 C-1.42 102.6 -3.79 108 -6.33 113.41 C-9.34 119.87 -12.21 126.38 -15.08 132.91 C-15.91 134.8 -16.75 136.68 -17.59 138.57 C-19.86 143.82 -21.38 148.33 -22 154 C-22.66 154.66 -23.32 155.32 -24 156 C-24.31 156.68 -24.62 157.36 -24.94 158.06 C-26 160 -26 160 -29 161 C-31.53 161.11 -34.03 161.16 -36.55 161.17 C-37.29 161.17 -38.03 161.17 -38.79 161.18 C-40.35 161.18 -41.92 161.19 -43.48 161.19 C-45.86 161.19 -48.24 161.21 -50.62 161.22 C-52.14 161.23 -53.66 161.23 -55.18 161.23 C-55.89 161.24 -56.6 161.24 -57.33 161.25 C-61.32 161.23 -64.44 160.85 -68 159 C-70.83 155.49 -70.14 151.29 -70 147 C-70 146.67 -70 146.34 -70 146 C-69.34 145.67 -68.68 145.34 -68 145 C-65.66 139.89 -63.98 134.53 -63 129 C-62.34 129 -61.68 129 -61 129 C-59.84 126.05 -59.84 126.05 -60 123 C-59.34 122.01 -58.68 121.02 -58 120 C-56.84 117.05 -56.84 117.05 -57 114 C-55.51 113.5 -55.51 113.5 -54 113 C-54 112.34 -54 111.68 -54 111 C-53.34 111 -52.68 111 -52 111 C-52.33 110.01 -52.66 109.02 -53 108 C-52.5 106.51 -52.5 106.51 -52 105 C-51.34 105 -50.68 105 -50 105 C-50 104.34 -50 103.68 -50 103 C-50.66 102.67 -51.32 102.34 -52 102 C-51.34 102 -50.68 102 -50 102 C-49.8 101.39 -49.59 100.77 -49.38 100.14 C-45.88 89.62 -45.88 89.62 -43 85 C-43.66 84.67 -44.32 84.34 -45 84 C-44.38 83.81 -43.76 83.63 -43.12 83.44 C-39.95 81.29 -39.89 78.62 -39 75 C-38.34 74.01 -37.68 73.02 -37 72 C-37.33 71.67 -37.66 71.34 -38 71 C-37.34 70.67 -36.68 70.34 -36 70 C-35.65 68.34 -35.32 66.67 -35 65 C-34.26 63.37 -33.47 61.77 -32.62 60.19 C-30.39 55.87 -28.61 51.58 -27 47 C-26.34 47 -25.68 47 -25 47 C-25 44.69 -25 42.38 -25 40 C-24.34 39.67 -23.68 39.34 -23 39 C-22.35 36.98 -22.35 36.98 -22 35 C-21.34 35 -20.68 35 -20 35 C-19.95 34.4 -19.9 33.79 -19.85 33.17 C-19.78 32.37 -19.7 31.57 -19.62 30.75 C-19.56 29.96 -19.49 29.17 -19.41 28.36 C-18.98 25.91 -18.21 24.15 -17 22 C-16.34 22 -15.68 22 -15 22 C-14.81 21.16 -14.81 21.16 -14.62 20.31 C-13.94 17.78 -12.97 15.44 -12 13 C-11.64 11.67 -11.3 10.34 -11 9 C-10.34 9 -9.68 9 -9 9 C-9 7.68 -9 6.36 -9 5 C-6.19 2.69 -6.19 2.69 -3 1 C-2.01 1.33 -1.02 1.66 0 2 C0 1.34 0 0.68 0 0 Z M27 20 C28 23 28 23 28 23 Z M36 40 C37 44 37 44 37 44 Z M38 46 C39 48 39 48 39 48 Z M52 79 C53 82 53 82 53 82 Z M60 98 C61 100 61 100 61 100 Z M61 100 C62 103 62 103 62 103 Z M63 105 C64 107 64 107 64 107 Z M72 125 C73 128 73 128 73 128 Z M76 136 C77 138 77 138 77 138 Z M80 145 C81 147 81 147 81 147 Z M-46 158 C-46 158.33 -46 158.66 -46 159 C-44.02 159 -42.04 159 -40 159 C-40 158.67 -40 158.34 -40 158 C-41.98 158 -43.96 158 -46 158 Z M-61 159 C-61 159.33 -61 159.66 -61 160 C-57.37 160 -53.74 160 -50 160 C-50 159.67 -50 159.34 -50 159 C-53.63 159 -57.26 159 -61 159 Z M-36 159 C-36 159.33 -36 159.66 -36 160 C-34.35 160 -32.7 160 -31 160 C-31 159.67 -31 159.34 -31 159 C-32.65 159 -34.3 159 -36 159 Z M47 159 C47 159.33 47 159.66 47 160 C48.65 160 50.3 160 52 160 C52 159.67 52 159.34 52 159 C50.35 159 48.7 159 47 159 Z M54 159 C54 159.33 54 159.66 54 160 C57.96 160 61.92 160 66 160 C66 159.67 66 159.34 66 159 C62.04 159 58.08 159 54 159 Z M70 159 C74 160 74 160 74 160 Z " fill="#060608" transform="translate(730,399)"/>
<path d="M0 0 C0.66 0.33 1.32 0.66 2 1 C4.84 1.16 7.66 1.26 10.51 1.32 C11.35 1.34 12.19 1.36 13.06 1.38 C15.75 1.44 18.43 1.5 21.12 1.56 C22.95 1.61 24.77 1.65 26.59 1.69 C31.06 1.8 35.53 1.9 40 2 C41.06 3.88 41.06 3.88 42 6 C41.67 6.66 41.34 7.32 41 8 C41.99 8.33 42.98 8.66 44 9 C43.67 9.66 43.34 10.32 43 11 C43.5 11.99 43.5 11.99 44 13 C44.66 12.67 45.32 12.34 46 12 C46.85 13.7 47.68 15.41 48.5 17.12 C48.96 18.08 49.43 19.03 49.91 20.01 C51.08 23.21 51.2 25.62 51 29 C51.66 29 52.32 29 53 29 C53.65 30.41 54.29 31.83 54.94 33.25 C55.3 34.04 55.66 34.83 56.03 35.64 C56.9 37.76 57.47 39.77 58 42 C58.33 42.66 58.66 43.32 59 44 C59.33 44.99 59.66 45.98 60 47 C60.47 47.6 60.95 48.2 61.44 48.81 C63.31 51.43 63.98 53.95 65 57 C65.68 58.26 66.39 59.51 67.12 60.75 C69 64 69 64 69 66 C68.34 66 67.68 66 67 66 C68.32 68.64 69.64 71.28 71 74 C72.32 74 73.64 74 75 74 C75.12 72.87 75.25 71.73 75.38 70.56 C75.58 69.39 75.79 68.21 76 67 C76.66 66.67 77.32 66.34 78 66 C78.16 65.01 78.33 64.02 78.5 63 C78.66 62.01 78.83 61.02 79 60 C79.66 59.67 80.32 59.34 81 59 C82.87 54.4 84.46 49.73 86 45 C86.66 45 87.32 45 88 45 C88.99 41.37 89.98 37.74 91 34 C91.66 34 92.32 34 93 34 C92.67 33.01 92.34 32.02 92 31 C92.33 30.34 92.66 29.68 93 29 C93.66 29 94.32 29 95 29 C94.98 28.07 94.96 27.14 94.94 26.19 C95 23 95 23 96 20 C96.66 20 97.32 20 98 20 C98.99 15.55 98.99 15.55 100 11 C100.66 11 101.32 11 102 11 C102.19 10.16 102.19 10.16 102.38 9.31 C103.06 6.78 103.99 4.42 105 2 C106.32 2 107.64 2 109 2 C109.33 1.34 109.66 0.68 110 0 C110 0.66 110 1.32 110 2 C111.11 1.98 112.21 1.96 113.35 1.94 C117.45 1.86 121.54 1.82 125.64 1.78 C127.42 1.76 129.19 1.73 130.97 1.7 C133.51 1.65 136.06 1.63 138.61 1.61 C139.41 1.59 140.2 1.57 141.02 1.55 C146.51 1.54 146.51 1.54 149.02 3.89 C150.81 7.75 149.31 11.14 148 15 C147.1 17.02 146.11 18.96 145.07 20.91 C141.28 28.31 138.04 36.7 136.44 44.88 C136 47 136 47 134 50 C133.34 49.67 132.68 49.34 132 49 C132.08 50.11 132.16 51.23 132.25 52.38 C132.26 57.63 130.64 62.47 128 67 C127.01 67.33 126.02 67.66 125 68 C123.56 70.57 123.56 70.57 122.38 73.69 C121.95 74.72 121.52 75.76 121.09 76.82 C120.04 79.9 119.49 82.8 119 86 C118.67 86.66 118.34 87.32 118 88 C117.34 88 116.68 88 116 88 C112.95 94.62 112.95 94.62 112 101.75 C112 105.94 110.4 107.65 108 111 C107.63 112.66 107.29 114.33 107 116 C105.33 119.87 104.55 121.63 101 124 C99.92 125.95 99.92 125.95 99.1 128.25 C98.76 129.11 98.43 129.96 98.09 130.85 C97.58 132.19 97.58 132.19 97.06 133.56 C96.39 135.31 95.71 137.07 95.04 138.82 C94.7 139.68 94.37 140.54 94.03 141.43 C92.72 144.7 91.28 147.91 89.79 151.11 C88.85 153.36 88.44 155.61 88 158 C86 160 86 160 83.57 160.23 C82.08 160.21 82.08 160.21 80.55 160.2 C79.48 160.19 78.4 160.18 77.29 160.18 C76.17 160.16 75.04 160.14 73.88 160.12 C72.74 160.12 71.6 160.11 70.43 160.1 C67.62 160.07 64.81 160.04 62 160 C61.67 159.34 61.34 158.68 61 158 C60.34 157.67 59.68 157.34 59 157 C56.53 153.33 54.83 149.45 53.12 145.38 C51.3 141.03 49.43 136.71 47.44 132.44 C45.65 128.55 44.07 124.63 42.56 120.62 C39.77 113.23 36.58 106 32.95 98.97 C31.78 96.54 30.87 94.04 29.94 91.5 C26.96 83.65 23.47 76.04 19.99 68.41 C16 59.6 16 59.6 16 56 C15.34 56 14.68 56 14 56 C13.82 55.42 13.64 54.84 13.45 54.24 C13.2 53.46 12.95 52.68 12.69 51.88 C12.32 50.73 12.32 50.73 11.95 49.55 C11.02 46.9 11.02 46.9 9.55 44.11 C7.44 39.87 5.9 35.47 4.28 31.02 C3.11 28.26 1.78 26.37 0 24 C-0.19 20.75 -0.19 20.75 0 18 C-0.66 18 -1.32 18 -2 18 C-4.54 7.58 -4.54 7.58 -4 4 C-3.01 3.34 -2.02 2.68 -1 2 C-0.67 1.34 -0.34 0.68 0 0 Z M46 17 C47 19 47 19 47 19 Z M49 24 C50 26 50 26 50 26 Z M53 33 C54 35 54 35 54 35 Z M54 35 C55 37 55 37 55 37 Z M135 42 C136 45 136 45 136 45 Z M129 56 C130 59 130 59 130 59 Z M128 59 C129 61 129 61 129 61 Z M65 60 C66 64 66 64 66 64 Z M127 61 C128 63 128 63 128 63 Z M126 63 C127 66 127 66 127 66 Z M105 113 C106 115 106 115 106 115 Z M104 115 C105 117 105 117 105 117 Z M63 158 C63 158.33 63 158.66 63 159 C70.26 159 77.52 159 85 159 C85 158.67 85 158.34 85 158 C77.74 158 70.48 158 63 158 Z " fill="#060608" transform="translate(542,399)"/>
<path d="M0 0 C1.79 3 3.07 6.07 4.38 9.31 C3.72 9.31 3.05 9.31 2.38 9.31 C3.33 11.64 3.33 11.64 6.38 13.31 C7.06 16.94 7.06 16.94 7.38 20.31 C8.03 20.31 8.7 20.31 9.38 20.31 C10.42 22.32 11.43 24.35 12.44 26.38 C13.01 27.5 13.57 28.63 14.16 29.79 C15.54 33.79 15.29 36.22 14.38 40.31 C15.37 40.64 16.36 40.97 17.38 41.31 C17.04 42.3 16.72 43.29 16.38 44.31 C17.7 44.64 19.01 44.97 20.38 45.31 C20.68 46.45 20.99 47.58 21.31 48.75 C22 52.1 22 52.1 23.38 53.31 C23.52 54.14 23.66 54.96 23.81 55.81 C24.09 57.05 24.09 57.05 24.38 58.31 C25.03 58.64 25.69 58.97 26.38 59.31 C27.1 61.29 27.77 63.29 28.38 65.31 C27.72 65.31 27.06 65.31 26.38 65.31 C27.03 65.97 27.69 66.63 28.38 67.31 C31.04 70.42 32.22 73.4 33.38 77.31 C32.72 77.31 32.06 77.31 31.38 77.31 C32.03 77.97 32.69 78.63 33.38 79.31 C34.03 79.97 34.69 80.63 35.38 81.31 C34.72 81.31 34.06 81.31 33.38 81.31 C34.03 81.97 34.69 82.63 35.38 83.31 C36.08 84.63 36.74 85.96 37.38 87.31 C37.8 88.16 38.23 89.01 38.66 89.89 C39.9 92.36 41.14 94.84 42.38 97.31 C41.72 97.31 41.06 97.31 40.38 97.31 C42.04 100.35 42.04 100.35 44.38 101.31 C45.45 103.71 45.45 103.71 46.5 106.69 C46.85 107.66 47.21 108.64 47.57 109.65 C48.38 112.34 48.38 114.53 48.38 117.31 C49.37 116.98 50.36 116.65 51.38 116.31 C54.25 116.27 57.09 116.29 59.95 116.36 C60.8 116.38 61.64 116.4 62.51 116.42 C64.3 116.46 66.09 116.51 67.88 116.55 C70.6 116.62 73.32 116.68 76.04 116.73 C77.78 116.78 79.52 116.82 81.27 116.86 C82.07 116.88 82.88 116.89 83.71 116.91 C88.6 117.05 92.73 117.77 97.38 119.31 C97.56 120.24 97.56 120.24 97.75 121.19 C98.25 123.5 98.25 123.5 100.38 125.31 C100.38 125.97 100.38 126.63 100.38 127.31 C101.03 127.64 101.69 127.97 102.38 128.31 C102.59 129.46 102.59 129.46 102.81 130.62 C103.44 133.64 104.51 134.92 106.38 137.31 C108.88 141.57 108.38 145.36 107.96 150.11 C107.38 152.31 107.38 152.31 104.38 154.31 C104.04 154.97 103.72 155.63 103.38 156.31 C92.62 156.38 81.87 156.44 71.12 156.47 C66.12 156.48 61.13 156.5 56.14 156.54 C51.32 156.57 46.5 156.59 41.69 156.6 C39.85 156.6 38.01 156.61 36.17 156.63 C33.6 156.65 31.02 156.65 28.45 156.65 C27.69 156.66 26.92 156.67 26.14 156.69 C22.96 156.67 20.7 156.49 17.87 154.98 C16.38 153.31 16.38 153.31 16.38 150.31 C15.72 150.31 15.05 150.31 14.38 150.31 C13.99 149.13 13.99 149.13 13.61 147.93 C11.75 142.27 9.83 136.74 7.38 131.31 C7.1 130.69 6.83 130.06 6.55 129.42 C4.08 123.78 1.47 118.2 -1.16 112.63 C-5.62 103.14 -5.62 103.14 -5.62 99.31 C-6.62 98.82 -6.62 98.82 -7.62 98.31 C-8.49 96.3 -8.49 96.3 -9.38 93.63 C-11.8 86.7 -14.66 79.99 -17.56 73.25 C-18.07 72.05 -18.59 70.85 -19.12 69.61 C-21.39 64.31 -23.7 59.07 -26.32 53.93 C-28.4 49.86 -30.06 45.75 -31.56 41.44 C-33.77 35.3 -36.36 29.53 -39.43 23.77 C-40.5 21.56 -41.06 19.68 -41.62 17.31 C-42.68 14.97 -43.77 12.65 -44.88 10.34 C-45.97 5.9 -45.26 1.79 -44.62 -2.69 C-39.31 -2.88 -33.99 -3.06 -28.66 -3.22 C-26.86 -3.28 -25.05 -3.35 -23.24 -3.41 C-20.63 -3.51 -18.03 -3.59 -15.43 -3.66 C-14.62 -3.7 -13.81 -3.73 -12.99 -3.76 C-7.96 -3.89 -3.7 -3.84 0 0 Z M-1.62 1.31 C-0.62 3.31 -0.62 3.31 -0.62 3.31 Z M9.38 24.31 C10.38 26.31 10.38 26.31 10.38 26.31 Z M10.38 27.31 C11.38 29.31 11.38 29.31 11.38 29.31 Z M11.38 30.31 C12.38 32.31 12.38 32.31 12.38 32.31 Z M13.38 34.31 C14.38 36.31 14.38 36.31 14.38 36.31 Z M18.38 46.31 C19.38 48.31 19.38 48.31 19.38 48.31 Z M19.38 48.31 C20.38 51.31 20.38 51.31 20.38 51.31 Z M21.38 54.31 C22.38 56.31 22.38 56.31 22.38 56.31 Z M30.38 74.31 C31.38 76.31 31.38 76.31 31.38 76.31 Z M37.38 91.31 C38.38 93.31 38.38 93.31 38.38 93.31 Z M43.38 105.31 C44.38 107.31 44.38 107.31 44.38 107.31 Z M45.38 110.31 C46.38 113.31 46.38 113.31 46.38 113.31 Z M104.38 137.31 C105.38 141.31 105.38 141.31 105.38 141.31 Z M106.38 143.31 C107.38 145.31 107.38 145.31 107.38 145.31 Z M37.38 153.31 C41.38 154.31 41.38 154.31 41.38 154.31 Z M55.38 153.31 C59.38 154.31 59.38 154.31 59.38 154.31 Z M94.38 153.31 C94.38 153.64 94.38 153.97 94.38 154.31 C97.01 154.31 99.65 154.31 102.38 154.31 C102.38 153.98 102.38 153.65 102.38 153.31 C99.74 153.31 97.1 153.31 94.38 153.31 Z " fill="#070709" transform="translate(829.625,403.6875)"/>
<path d="M0 0 C0.33 0.66 0.66 1.32 1 2 C4.3 2 7.6 2 11 2 C11.33 1.34 11.66 0.68 12 0 C12 0.66 12 1.32 12 2 C12.88 1.92 13.77 1.83 14.68 1.75 C31.72 0.3 31.72 0.3 37 2 C40.64 5.53 41.6 8.58 42.44 13.5 C43.58 19.11 44.64 21.44 49 25 C49.37 26.32 49.7 27.66 50 29 C50.59 30.27 51.22 31.52 51.88 32.75 C53.6 36.11 54.99 39.48 56.27 43.04 C57.4 46.08 58.7 49.03 60 52 C59.34 52 58.68 52 58 52 C58.99 53.98 59.98 55.96 61 58 C61.66 58 62.32 58 63 58 C63.99 60.97 63.99 60.97 65 64 C64.34 64 63.68 64 63 64 C63.66 64.66 64.32 65.32 65 66 C69.26 70.63 71 76.83 71 83 C72.49 83.5 72.49 83.5 74 84 C73.67 85.65 73.34 87.3 73 89 C74.49 89.99 74.49 89.99 76 91 C77.56 93.38 77.56 93.38 79 96 C79.37 96.62 79.74 97.24 80.12 97.88 C81 100 81 100 81.44 103.56 C82.04 107.26 82.48 107.59 85 110 C85.19 112.69 85.19 112.69 85 115 C85.66 115 86.32 115 87 115 C89.18 119.39 91.14 123.37 91.5 128.31 C92.09 132.64 92.99 133.08 96 136 C96.94 138.25 97.64 140.5 98.33 142.83 C98.97 145.13 98.97 145.13 100.31 147.62 C101.34 151.18 100.3 153.62 99 157 C95.56 158.72 91.62 158.12 87.84 158.1 C86.93 158.1 86.02 158.09 85.09 158.09 C82.18 158.09 79.28 158.08 76.38 158.06 C74.41 158.06 72.44 158.05 70.48 158.05 C65.65 158.04 60.83 158.02 56 158 C55.04 155.94 54.08 153.88 53.12 151.81 C52.59 150.66 52.06 149.52 51.51 148.33 C48 140.58 48 140.58 48 138 C47.34 138 46.68 138 46 138 C44.67 134 43.33 130 42 126 C41.01 125.01 41.01 125.01 40 124 C39.63 122.68 39.3 121.34 39 120 C37.79 116.61 36.45 113.28 35.12 109.94 C34.6 108.57 34.6 108.57 34.06 107.18 C33.71 106.3 33.37 105.43 33.01 104.53 C32.69 103.73 32.38 102.93 32.06 102.11 C30.96 99.93 29.76 98.66 28 97 C27.34 95.13 27.34 95.13 26.94 93.12 C25.93 88.57 24.61 84.91 22 81 C21.31 79.01 20.65 77.01 20 75 C19.08 72.57 18.15 70.16 17.19 67.75 C16.92 67.09 16.66 66.43 16.39 65.75 C14.55 61.2 12.47 56.86 10.21 52.51 C8.31 48.58 6.86 44.49 5.34 40.39 C3.49 35.71 1.33 31.2 -0.86 26.68 C-2 24 -2 24 -2 21 C-2.66 20.67 -3.32 20.34 -4 20 C-7.1 13.52 -7.26 8.78 -5 2 C-4.01 1.67 -3.02 1.34 -2 1 C-1.34 1.33 -0.68 1.66 0 2 C0 1.34 0 0.68 0 0 Z M47 26 C48 28 48 28 48 28 Z M52 38 C53 41 53 41 53 41 Z M66 70 C67 72 67 72 67 72 Z M68 75 C68 76.65 68 78.3 68 80 C68.33 80 68.66 80 69 80 C69 78.35 69 76.7 69 75 C68.67 75 68.34 75 68 75 Z M76 94 C77 97 77 97 77 97 Z M77 97 C78 99 78 99 78 99 Z M79 101 C80 103 80 103 80 103 Z M86 118 C87 121 87 121 87 121 Z M88 123 C89 125 89 125 89 125 Z M89 125 C90 128 90 128 90 128 Z M93 134 C94 137 94 137 94 137 Z M96 141 C97 143 97 143 97 143 Z " fill="#08080A" transform="translate(469,399)"/>
<path d="M0 0 C1.06 0.08 2.12 0.17 3.21 0.25 C4.6 0.36 5.99 0.46 7.38 0.56 C8.07 0.62 8.77 0.67 9.49 0.73 C13.37 1.11 13.37 1.11 17 0 C18.94 0.53 20.88 1.05 22.82 1.59 C26.11 2.21 28.74 1.68 32 1 C32.5 1.99 32.5 1.99 33 3 C33.33 3 33.66 3 34 3 C34 7.62 34 12.24 34 17 C32.35 17.33 30.7 17.66 29 18 C28.34 16.68 27.68 15.36 27 14 C23.07 14.57 23.07 14.57 20 17 C18.35 16.67 16.7 16.34 15 16 C14.67 12.37 14.34 8.74 14 5 C13.34 5.66 12.68 6.32 12 7 C11.67 7 11.34 7 11 7 C10.34 10.3 9.68 13.6 9 17 C8.34 16.67 7.68 16.34 7 16 C6.01 16.33 5.02 16.66 4 17 C3.67 13.7 3.34 10.4 3 7 C2.01 6.67 1.02 6.34 0 6 C-1.19 3.94 -1.19 3.94 -2 2 C-1.34 2 -0.68 2 0 2 C0 1.34 0 0.68 0 0 Z M7 7 C8 10 8 10 8 10 Z " fill="#3F3E40" transform="translate(892,404)"/>
<path d="M0 0 C9.35 -0.02 18.69 -0.04 28.04 -0.05 C32.38 -0.06 36.72 -0.06 41.06 -0.08 C45.25 -0.09 49.45 -0.09 53.64 -0.09 C55.24 -0.1 56.83 -0.1 58.42 -0.11 C66.68 -0.13 74.79 -0.03 83 1 C82.67 1.66 82.34 2.32 82 3 C54.61 3 27.22 3 -1 3 C-0.67 2.01 -0.34 1.02 0 0 Z " fill="#D1D0D2" transform="translate(851,557)"/>
<path d="M0 0 C5.57 0.09 11.14 0.2 16.71 0.32 C18.6 0.36 20.49 0.39 22.38 0.42 C25.11 0.47 27.84 0.53 30.57 0.59 C31.41 0.6 32.24 0.61 33.11 0.62 C38.09 0.74 42.27 1.42 47 3 C47 3.33 47 3.66 47 4 C40.49 4.03 33.97 4.04 27.46 4.05 C25.24 4.06 23.02 4.07 20.8 4.08 C17.62 4.09 14.44 4.09 11.26 4.1 C10.26 4.1 9.27 4.11 8.24 4.11 C6.86 4.11 6.86 4.11 5.45 4.11 C4.64 4.12 3.82 4.12 2.99 4.12 C1 4 1 4 -1 3 C-0.67 2.01 -0.34 1.02 0 0 Z " fill="#C4C3C5" transform="translate(880,520)"/>
<path d="M0 0 C1 0.01 2 0.01 3.03 0.02 C4.11 0.02 5.19 0.02 6.3 0.03 C8.01 0.04 8.01 0.04 9.75 0.05 C11.46 0.06 11.46 0.06 13.2 0.06 C16.03 0.08 18.86 0.09 21.68 0.11 C22.01 0.77 22.34 1.43 22.68 2.11 C21.7 2.11 21.7 2.11 20.7 2.1 C17.73 2.08 14.77 2.06 11.81 2.05 C10.78 2.04 9.74 2.03 8.68 2.03 C7.69 2.02 6.71 2.02 5.69 2.02 C4.78 2.01 3.87 2.01 2.93 2 C0.65 1.96 0.65 1.96 -1.32 3.11 C-1.32 13.34 -1.32 23.57 -1.32 34.11 C4.29 34.74 9.16 35.22 14.68 35.11 C18.42 35.11 21.97 35.63 25.68 36.11 C22.36 38.33 21.33 38.36 17.46 38.34 C16.45 38.34 15.44 38.34 14.39 38.34 C13.33 38.33 12.27 38.31 11.18 38.3 C10.13 38.3 9.07 38.3 7.98 38.3 C0.1 38.25 0.1 38.25 -3.32 37.11 C-3.34 32 -3.36 26.9 -3.37 21.79 C-3.38 20.05 -3.38 18.31 -3.39 16.57 C-3.4 14.08 -3.41 11.58 -3.41 9.09 C-3.42 8.3 -3.42 7.52 -3.43 6.72 C-3.43 4.85 -3.38 2.98 -3.32 1.11 C-2.32 0.11 -2.32 0.11 0 0 Z " fill="#D3D2D4" transform="translate(385.316650390625,442.886474609375)"/>
<path d="M0 0 C1.94 0.11 3.88 0.24 5.81 0.38 C6.89 0.44 7.97 0.51 9.08 0.59 C12 1 12 1 15 3 C14.03 4.35 13.03 5.69 12 7 C11.67 7 11.34 7 11 7 C10.34 10.3 9.68 13.6 9 17 C8.34 16.67 7.68 16.34 7 16 C6.01 16.33 5.02 16.66 4 17 C3.67 13.7 3.34 10.4 3 7 C2.01 6.67 1.02 6.34 0 6 C-1.19 3.94 -1.19 3.94 -2 2 C-1.34 2 -0.68 2 0 2 C0 1.34 0 0.68 0 0 Z M7 7 C8 10 8 10 8 10 Z " fill="#29292B" transform="translate(892,404)"/>
<path d="M0 0 C0.92 0.01 1.83 0.01 2.78 0.02 C3.77 0.02 4.76 0.02 5.78 0.03 C6.82 0.03 7.86 0.04 8.93 0.05 C10.5 0.06 10.5 0.06 12.1 0.06 C14.69 0.08 17.28 0.09 19.87 0.11 C19.87 0.44 19.87 0.77 19.87 1.11 C9.47 1.61 9.47 1.61 -1.13 2.11 C-1.11 4.22 -1.09 6.33 -1.06 8.5 C-1.05 10.55 -1.03 12.6 -1.02 14.66 C-1.01 16.08 -1 17.5 -0.98 18.92 C-0.96 20.97 -0.95 23.01 -0.94 25.06 C-0.93 26.29 -0.92 27.52 -0.91 28.79 C-1.13 32.02 -1.75 34.22 -3.13 37.11 C-4.38 33.31 -4.17 29.73 -4.05 25.76 C-4.03 25.06 -4 24.35 -3.98 23.63 C-3.94 22.15 -3.89 20.67 -3.84 19.19 C-3.76 16.92 -3.69 14.65 -3.63 12.38 C-3.58 10.94 -3.53 9.51 -3.48 8.07 C-3.44 6.76 -3.4 5.45 -3.35 4.1 C-3.06 0.16 -3.06 0.16 0 0 Z " fill="#D3D2D4" transform="translate(385.133056640625,520.886474609375)"/>
<path d="M0 0 C1.03 0.31 2.06 0.62 3.12 0.94 C6.39 1.88 9.64 2.51 13 3 C13 2.34 13 1.68 13 1 C13.66 1 14.32 1 15 1 C15 1.66 15 2.32 15 3 C16.92 2.86 18.83 2.71 20.75 2.56 C22.35 2.44 22.35 2.44 23.98 2.32 C26.44 2.06 28.64 1.68 31 1 C31 1.66 31 2.32 31 3 C31.89 2.65 32.77 2.3 33.69 1.94 C37.06 0.98 38.7 1.03 42 2 C38.28 4.41 34.6 4.29 30.31 4.27 C29.57 4.27 28.83 4.27 28.07 4.27 C26.51 4.27 24.95 4.27 23.39 4.26 C21.01 4.25 18.63 4.26 16.24 4.27 C14.72 4.27 13.21 4.27 11.69 4.27 C10.62 4.27 10.62 4.27 9.53 4.28 C5.86 4.24 3.12 4.02 0 2 C0 1.34 0 0.68 0 0 Z " fill="#CFCED0" transform="translate(769,556)"/>
<path d="M0 0 C19.38 0 19.38 0 27 1 C23.65 3.23 22.58 3.24 18.68 3.2 C17.13 3.19 17.13 3.19 15.56 3.18 C14.49 3.16 13.42 3.14 12.31 3.12 C11.23 3.12 10.15 3.11 9.03 3.1 C6.35 3.07 3.68 3.04 1 3 C0.67 2.01 0.34 1.02 0 0 Z " fill="#AFAEB0" transform="translate(384,478)"/>
<path d="M0 0 C0.66 0.33 1.32 0.66 2 1 C4.37 1.1 6.75 1.13 9.12 1.12 C9.8 1.12 10.48 1.12 11.19 1.12 C14.67 1.09 18.06 0.96 21.5 0.44 C25.25 -0.03 28.29 0.37 32 1 C33.67 1.04 35.33 1.05 37 1 C33.34 3.44 30.6 3.29 26.38 3.27 C25.63 3.27 24.89 3.27 24.12 3.27 C22.55 3.27 20.98 3.27 19.41 3.26 C17.01 3.25 14.61 3.26 12.2 3.27 C10.68 3.27 9.15 3.27 7.62 3.27 C6.91 3.27 6.19 3.27 5.45 3.28 C1.75 3.24 0.16 3.11 -3 1 C-2.01 0.67 -1.02 0.34 0 0 Z " fill="#D3D2D4" transform="translate(667,557)"/>
<path d="M0 0 C13.2 0 26.4 0 40 0 C40 0.33 40 0.66 40 1 C26.8 1 13.6 1 0 1 C0 0.67 0 0.34 0 0 Z " fill="#D3D2D4" transform="translate(527,558)"/>
<path d="M0 0 C11.88 0 23.76 0 36 0 C36 0.33 36 0.66 36 1 C24.12 1 12.24 1 0 1 C0 0.67 0 0.34 0 0 Z " fill="#D3D2D4" transform="translate(344,558)"/>
<path d="M0 0 C0.66 0.33 1.32 0.66 2 1 C1.34 1.66 0.68 2.32 0 3 C-0.33 3 -0.66 3 -1 3 C-1.66 6.3 -2.32 9.6 -3 13 C-3.33 13 -3.66 13 -4 13 C-5.35 6.76 -5.35 6.76 -3.69 3.12 C-2 1 -2 1 0 0 Z " fill="#CBCACC" transform="translate(904,408)"/>
<path d="M0 0 C0.66 0.33 1.32 0.66 2 1 C-0.48 6.94 -0.48 6.94 -3 13 C-4.24 9.29 -3.57 8.32 -2.06 4.81 C-1.68 3.91 -1.3 3.01 -0.91 2.08 C-0.61 1.39 -0.31 0.71 0 0 Z " fill="#BCBBBD" transform="translate(658,487)"/>
<path d="M0 0 C1 3 1 3 0.22 5.04 C-0.16 5.75 -0.54 6.46 -0.94 7.19 C-1.32 7.9 -1.7 8.62 -2.09 9.36 C-2.54 10.17 -2.54 10.17 -3 11 C-3.84 8.62 -4.18 7.46 -3.22 5.08 C-1.61 2.54 -1.61 2.54 0 0 Z " fill="#D3D2D4" transform="translate(717,528)"/>
<path d="M0 0 C1 3 1 3 0.22 5.04 C-0.16 5.75 -0.54 6.46 -0.94 7.19 C-1.32 7.9 -1.7 8.62 -2.09 9.36 C-2.54 10.17 -2.54 10.17 -3 11 C-3.33 10.34 -3.66 9.68 -4 9 C-3.22 6.84 -3.22 6.84 -2.06 4.38 C-1.68 3.56 -1.3 2.74 -0.91 1.9 C-0.61 1.27 -0.31 0.65 0 0 Z " fill="#D3D2D4" transform="translate(456,485)"/>
<path d="M0 0 C2 2 2 2 2.12 4.62 C2.08 5.41 2.04 6.19 2 7 C1.34 7 0.68 7 0 7 C0 4.69 0 2.38 0 0 Z " fill="#D3D2D4" transform="translate(470,547)"/>
<path d="M0 0 C0.33 0.99 0.66 1.98 1 3 C-0.44 5.19 -0.44 5.19 -2 7 C-1.12 2.25 -1.12 2.25 0 0 Z " fill="#D3D2D4" transform="translate(683,430)"/>
<path d="M0 0 C1.75 2.62 2.39 4.04 3 7 C1.5 5.75 1.5 5.75 0 4 C0 2.68 0 1.36 0 0 Z " fill="#D3D2D4" transform="translate(513,415)"/>
<path d="M0 0 C0.33 0 0.66 0 1 0 C1 2.64 1 5.28 1 8 C0.67 8 0.34 8 0 8 C0 5.36 0 2.72 0 0 Z " fill="#D3D2D4" transform="translate(813,548)"/>
<path d="M0 0 C0.33 0.66 0.66 1.32 1 2 C0.06 4.12 0.06 4.12 -1 6 C-1.33 5.34 -1.66 4.68 -2 4 C-1.06 1.88 -1.06 1.88 0 0 Z " fill="#D3D2D4" transform="translate(724,512)"/>
<path d="M0 0 C0.66 0.33 1.32 0.66 2 1 C1.34 2.65 0.68 4.3 0 6 C-1 3 -1 3 0 0 Z " fill="#B8B7B9" transform="translate(734,487)"/>
<path d="M0 0 C0.33 0 0.66 0 1 0 C1 1.98 1 3.96 1 6 C0.01 6.5 0.01 6.5 -1 7 C-0.67 4.69 -0.34 2.38 0 0 Z " fill="#D3D2D4" transform="translate(692,406)"/>
<path d="M0 0 C0.66 0.33 1.32 0.66 2 1 C1.01 2.32 0.02 3.64 -1 5 C-0.67 3.35 -0.34 1.7 0 0 Z " fill="#B4B4B6" transform="translate(641,528)"/>
<path d="M0 0 C0.33 0.66 0.66 1.32 1 2 C0.67 2.99 0.34 3.98 0 5 C-0.66 4.67 -1.32 4.34 -2 4 C-1.34 2.68 -0.68 1.36 0 0 Z " fill="#D3D2D4" transform="translate(689,416)"/>
<path d="M0 0 C0.33 0 0.66 0 1 0 C1 1.98 1 3.96 1 6 C0.67 6 0.34 6 0 6 C0 4.02 0 2.04 0 0 Z " fill="#D3D2D4" transform="translate(569,550)"/>
<path d="M0 0 C0.33 0.99 0.66 1.98 1 3 C0.34 3.66 -0.32 4.32 -1 5 C-0.67 3.35 -0.34 1.7 0 0 Z " fill="#D3D2D4" transform="translate(710,544)"/>
<path d="M0 0 C0.33 0.99 0.66 1.98 1 3 C0.34 3.66 -0.32 4.32 -1 5 C-0.67 3.35 -0.34 1.7 0 0 Z " fill="#D3D2D4" transform="translate(719,523)"/>
<path d="M0 0 C0.33 0.99 0.66 1.98 1 3 C0.34 3.66 -0.32 4.32 -1 5 C-0.67 3.35 -0.34 1.7 0 0 Z " fill="#D3D2D4" transform="translate(726,507)"/>
<path d="M0 0 C0.33 0.66 0.66 1.32 1 2 C0.01 3.49 0.01 3.49 -1 5 C-0.67 3.35 -0.34 1.7 0 0 Z " fill="#D3D2D4" transform="translate(675,449)"/>
<path d="M0 0 C1.65 0 3.3 0 5 0 C4.67 0.66 4.34 1.32 4 2 C2.68 1.34 1.36 0.68 0 0 Z " fill="#AFAFB1" transform="translate(914,420)"/>
<path d="M0 0 C0.33 0 0.66 0 1 0 C1 1.65 1 3.3 1 5 C0.67 5 0.34 5 0 5 C0 3.35 0 1.7 0 0 Z " fill="#D3D2D4" transform="translate(938,549)"/>
<path d="M0 0 C0.33 0.66 0.66 1.32 1 2 C0.34 2.66 -0.32 3.32 -1 4 C-0.67 2.68 -0.34 1.36 0 0 Z " fill="#D3D2D4" transform="translate(635,543)"/>
<path d="M0 0 C0.33 0.66 0.66 1.32 1 2 C0.34 2.66 -0.32 3.32 -1 4 C-0.67 2.68 -0.34 1.36 0 0 Z " fill="#D3D2D4" transform="translate(712,540)"/>
<path d="M0 0 C0.33 0.66 0.66 1.32 1 2 C0.34 2.66 -0.32 3.32 -1 4 C-0.67 2.68 -0.34 1.36 0 0 Z " fill="#D3D2D4" transform="translate(644,522)"/>
<path d="M0 0 C0.33 0.99 0.66 1.98 1 3 C0.01 3.5 0.01 3.5 -1 4 C-0.67 2.68 -0.34 1.36 0 0 Z " fill="#D3D2D4" transform="translate(721,519)"/>
<path d="M0 0 C0.33 0.99 0.66 1.98 1 3 C0.01 3.5 0.01 3.5 -1 4 C-0.67 2.68 -0.34 1.36 0 0 Z " fill="#D3D2D4" transform="translate(728,503)"/>
<path d="M0 0 C0.33 0.66 0.66 1.32 1 2 C0.34 2.66 -0.32 3.32 -1 4 C-0.67 2.68 -0.34 1.36 0 0 Z " fill="#D3D2D4" transform="translate(665,473)"/>
<path d="M0 0 C0.99 0.5 0.99 0.5 2 1 C1.67 1.99 1.34 2.98 1 4 C0.67 2.68 0.34 1.36 0 0 Z " fill="#A8A8AA" transform="translate(775,459)"/>
<path d="M0 0 C0.33 0.99 0.66 1.98 1 3 C0.01 3.5 0.01 3.5 -1 4 C-0.67 2.68 -0.34 1.36 0 0 Z " fill="#D3D2D4" transform="translate(680,437)"/>
<path d="M0 0 C0.66 0.33 1.32 0.66 2 1 C1.01 1.66 0.02 2.32 -1 3 C-0.67 2.01 -0.34 1.02 0 0 Z " fill="#000002" transform="translate(462,402)"/>
<path d="M0 0 C0.99 0.5 0.99 0.5 2 1 C1.34 1.66 0.68 2.32 0 3 C0 2.01 0 1.02 0 0 Z " fill="#9E9D9F" transform="translate(661,481)"/>
<path d="M0 0 C0.99 0.5 0.99 0.5 2 1 C1.34 1.66 0.68 2.32 0 3 C0 2.01 0 1.02 0 0 Z " fill="#9E9D9F" transform="translate(666,469)"/>
<path d="M0 0 C0 3 0 3 0 3 Z " fill="#D3D2D4" transform="translate(774,456)"/>
<path d="M0 0 C1 4 1 4 1 4 Z " fill="#D3D2D4" transform="translate(837,420)"/>
<path d="M0 0 C0 3 0 3 0 3 Z " fill="#000002" transform="translate(723,400)"/>
<path d="M0 0 C0.33 0.66 0.66 1.32 1 2 C0.34 1.67 -0.32 1.34 -1 1 C-0.67 0.67 -0.34 0.34 0 0 Z " fill="#D3D2D4" transform="translate(937,556)"/>
<path d="" fill="#D3D2D4" transform="translate(0,0)"/>
<path d="" fill="#D3D2D4" transform="translate(0,0)"/>
<path d="" fill="#D3D2D4" transform="translate(0,0)"/>
<path d="" fill="#D3D2D4" transform="translate(0,0)"/>
<path d="" fill="#D3D2D4" transform="translate(0,0)"/>
<path d="" fill="#D3D2D4" transform="translate(0,0)"/>
<path d="M0 0 C0.33 0.66 0.66 1.32 1 2 C0.34 1.67 -0.32 1.34 -1 1 C-0.67 0.67 -0.34 0.34 0 0 Z " fill="#D3D2D4" transform="translate(543,486)"/>
<path d="M0 0 C0.99 0.5 0.99 0.5 2 1 C1.01 1.5 1.01 1.5 0 2 C0 1.34 0 0.68 0 0 Z " fill="#8C8C8E" transform="translate(457,483)"/>
<path d="M0 0 C0.66 0 1.32 0 2 0 C1.67 0.66 1.34 1.32 1 2 C0.67 1.34 0.34 0.68 0 0 Z " fill="#D3D2D4" transform="translate(780,473)"/>
<path d="" fill="#8C8C8E" transform="translate(0,0)"/>
<path d="" fill="#000002" transform="translate(0,0)"/>
<path d="" fill="#D3D2D4" transform="translate(0,0)"/>
<path d="" fill="#D3D2D4" transform="translate(0,0)"/>
<path d="" fill="#D3D2D4" transform="translate(0,0)"/>
<path d="M0 0 C0.99 0.5 0.99 0.5 2 1 C1.01 1.5 1.01 1.5 0 2 C0 1.34 0 0.68 0 0 Z " fill="#8C8C8E" transform="translate(686,422)"/>
<path d="M0 0 C3 1 3 1 3 1 Z " fill="#D3D2D4" transform="translate(897,421)"/>
<path d="M0 0 C0.66 0 1.32 0 2 0 C1.67 0.66 1.34 1.32 1 2 C0.67 1.34 0.34 0.68 0 0 Z " fill="#8C8C8E" transform="translate(908,420)"/>
<path d="" fill="#D3D2D4" transform="translate(0,0)"/>
<path d="M0 0 C0.66 0 1.32 0 2 0 C1.67 0.66 1.34 1.32 1 2 C0.67 1.34 0.34 0.68 0 0 Z " fill="#D3D2D4" transform="translate(585,409)"/>
<path d="" fill="#D3D2D4" transform="translate(0,0)"/>
<path d="M0 0 C3 1 3 1 3 1 Z " fill="#000002" transform="translate(896,403)"/>
<path d="M0 0 C3 1 3 1 3 1 Z " fill="#D3D2D4" transform="translate(675,398)"/>
<path d="" fill="#D3D2D4" transform="translate(0,0)"/>
<path d="" fill="#D3D2D4" transform="translate(0,0)"/>
<path d="" fill="#D3D2D4" transform="translate(0,0)"/>
<path d="" fill="#D3D2D4" transform="translate(0,0)"/>
<path d="" fill="#D3D2D4" transform="translate(0,0)"/>
<path d="" fill="#D3D2D4" transform="translate(0,0)"/>
<path d="" fill="#D3D2D4" transform="translate(0,0)"/>
<path d="" fill="#D3D2D4" transform="translate(0,0)"/>
<path d="" fill="#000002" transform="translate(0,0)"/>
<path d="" fill="#D3D2D4" transform="translate(0,0)"/>
<path d="" fill="#D3D2D4" transform="translate(0,0)"/>
<path d="" fill="#D3D2D4" transform="translate(0,0)"/>
<path d="" fill="#D3D2D4" transform="translate(0,0)"/>
<path d="" fill="#D3D2D4" transform="translate(0,0)"/>
<path d="" fill="#D3D2D4" transform="translate(0,0)"/>
<path d="" fill="#D3D2D4" transform="translate(0,0)"/>
<path d="M0 0 C2 1 2 1 2 1 Z " fill="#D3D2D4" transform="translate(540,482)"/>
<path d="" fill="#D3D2D4" transform="translate(0,0)"/>
<path d="" fill="#D3D2D4" transform="translate(0,0)"/>
<path d="" fill="#D3D2D4" transform="translate(0,0)"/>
<path d="" fill="#D3D2D4" transform="translate(0,0)"/>
<path d="M0 0 C2 1 2 1 2 1 Z " fill="#D3D2D4" transform="translate(667,467)"/>
<path d="" fill="#D3D2D4" transform="translate(0,0)"/>
<path d="" fill="#D3D2D4" transform="translate(0,0)"/>
<path d="" fill="#D3D2D4" transform="translate(0,0)"/>
<path d="" fill="#D3D2D4" transform="translate(0,0)"/>
<path d="" fill="#D3D2D4" transform="translate(0,0)"/>
<path d="" fill="#000002" transform="translate(0,0)"/>
<path d="" fill="#000002" transform="translate(0,0)"/>
<path d="" fill="#D3D2D4" transform="translate(0,0)"/>
<path d="" fill="#D3D2D4" transform="translate(0,0)"/>
<path d="" fill="#D3D2D4" transform="translate(0,0)"/>
<path d="M0 0 C2 1 2 1 2 1 Z " fill="#000002" transform="translate(635,424)"/>
<path d="" fill="#69696B" transform="translate(0,0)"/>
<path d="" fill="#D3D2D4" transform="translate(0,0)"/>
<path d="" fill="#D3D2D4" transform="translate(0,0)"/>
<path d="" fill="#D3D2D4" transform="translate(0,0)"/>
<path d="" fill="#000002" transform="translate(0,0)"/>
<path d="" fill="#D3D2D4" transform="translate(0,0)"/>
<path d="" fill="#D3D2D4" transform="translate(0,0)"/>
<path d="M0 0 C2 1 2 1 2 1 Z " fill="#D3D2D4" transform="translate(654,398)"/>
<path d="" fill="#D3D2D4" transform="translate(0,0)"/>
<path d="" fill="#D3D2D4" transform="translate(0,0)"/>
<path d="" fill="#D3D2D4" transform="translate(0,0)"/>
<path d="" fill="#D3D2D4" transform="translate(0,0)"/>
<path d="" fill="#D3D2D4" transform="translate(0,0)"/>
<path d="" fill="#D3D2D4" transform="translate(0,0)"/>
<path d="" fill="#D3D2D4" transform="translate(0,0)"/>
<path d="" fill="#D3D2D4" transform="translate(0,0)"/>
<path d="" fill="#D3D2D4" transform="translate(0,0)"/>
<path d="" fill="#D3D2D4" transform="translate(0,0)"/>
<path d="" fill="#D3D2D4" transform="translate(0,0)"/>
<path d="" fill="#D3D2D4" transform="translate(0,0)"/>
<path d="" fill="#D3D2D4" transform="translate(0,0)"/>
<path d="" fill="#D3D2D4" transform="translate(0,0)"/>
<path d="" fill="#D3D2D4" transform="translate(0,0)"/>
<path d="" fill="#000002" transform="translate(0,0)"/>
<path d="" fill="#D3D2D4" transform="translate(0,0)"/>
<path d="" fill="#D3D2D4" transform="translate(0,0)"/>
<path d="" fill="#D3D2D4" transform="translate(0,0)"/>
<path d="" fill="#000002" transform="translate(0,0)"/>
<path d="" fill="#D3D2D4" transform="translate(0,0)"/>
<path d="" fill="#D3D2D4" transform="translate(0,0)"/>
<path d="" fill="#000002" transform="translate(0,0)"/>
<path d="" fill="#D3D2D4" transform="translate(0,0)"/>
<path d="" fill="#D3D2D4" transform="translate(0,0)"/>
<path d="" fill="#D3D2D4" transform="translate(0,0)"/>
<path d="" fill="#D3D2D4" transform="translate(0,0)"/>
<path d="" fill="#D3D2D4" transform="translate(0,0)"/>
<path d="" fill="#D3D2D4" transform="translate(0,0)"/>
<path d="" fill="#D3D2D4" transform="translate(0,0)"/>
<path d="" fill="#000002" transform="translate(0,0)"/>
<path d="" fill="#000002" transform="translate(0,0)"/>
<path d="" fill="#000002" transform="translate(0,0)"/>
<path d="" fill="#000002" transform="translate(0,0)"/>
<path d="" fill="#D3D2D4" transform="translate(0,0)"/>
<path d="" fill="#D3D2D4" transform="translate(0,0)"/>
<path d="" fill="#000002" transform="translate(0,0)"/>
<path d="" fill="#D3D2D4" transform="translate(0,0)"/>
<path d="" fill="#D3D2D4" transform="translate(0,0)"/>
<path d="" fill="#D3D2D4" transform="translate(0,0)"/>
<path d="" fill="#000002" transform="translate(0,0)"/>
<path d="" fill="#D3D2D4" transform="translate(0,0)"/>
<path d="" fill="#D3D2D4" transform="translate(0,0)"/>
<path d="" fill="#000002" transform="translate(0,0)"/>
<path d="" fill="#D3D2D4" transform="translate(0,0)"/>
<path d="" fill="#000002" transform="translate(0,0)"/>
<path d="" fill="#D3D2D4" transform="translate(0,0)"/>
<path d="" fill="#000002" transform="translate(0,0)"/>
<path d="" fill="#000002" transform="translate(0,0)"/>
<path d="" fill="#000002" transform="translate(0,0)"/>
<path d="" fill="#D3D2D4" transform="translate(0,0)"/>
<path d="" fill="#D3D2D4" transform="translate(0,0)"/>
<path d="" fill="#000002" transform="translate(0,0)"/>
<path d="" fill="#000002" transform="translate(0,0)"/>
<path d="" fill="#000002" transform="translate(0,0)"/>
<path d="" fill="#000002" transform="translate(0,0)"/>
<path d="" fill="#000002" transform="translate(0,0)"/>
<path d="" fill="#000002" transform="translate(0,0)"/>
<path d="" fill="#D3D2D4" transform="translate(0,0)"/>
<path d="" fill="#000002" transform="translate(0,0)"/>
<path d="" fill="#D3D2D4" transform="translate(0,0)"/>
<path d="" fill="#000002" transform="translate(0,0)"/>
<path d="" fill="#D3D2D4" transform="translate(0,0)"/>
<path d="" fill="#D3D2D4" transform="translate(0,0)"/>
<path d="" fill="#D3D2D4" transform="translate(0,0)"/>
<path d="" fill="#D3D2D4" transform="translate(0,0)"/>
<path d="" fill="#D3D2D4" transform="translate(0,0)"/>
<path d="" fill="#000002" transform="translate(0,0)"/>
<path d="" fill="#D3D2D4" transform="translate(0,0)"/>
<path d="" fill="#D3D2D4" transform="translate(0,0)"/>
<path d="" fill="#000002" transform="translate(0,0)"/>
<path d="" fill="#D3D2D4" transform="translate(0,0)"/>
<path d="" fill="#D3D2D4" transform="translate(0,0)"/>
<path d="" fill="#D3D2D4" transform="translate(0,0)"/>
<path d="" fill="#000002" transform="translate(0,0)"/>
<path d="" fill="#000002" transform="translate(0,0)"/>
<path d="" fill="#000002" transform="translate(0,0)"/>
<path d="" fill="#000002" transform="translate(0,0)"/>
<path d="" fill="#000002" transform="translate(0,0)"/>
<path d="" fill="#D3D2D4" transform="translate(0,0)"/>
<path d="" fill="#000002" transform="translate(0,0)"/>
<path d="" fill="#000002" transform="translate(0,0)"/>
<path d="" fill="#D3D2D4" transform="translate(0,0)"/>
<path d="" fill="#000002" transform="translate(0,0)"/>
<path d="" fill="#D3D2D4" transform="translate(0,0)"/>
<path d="" fill="#D3D2D4" transform="translate(0,0)"/>
</svg>
